<?xml version="1.0" encoding="UTF-8" standalone="no"?>
<svg
   xmlns:dc="http://purl.org/dc/elements/1.1/"
   xmlns:cc="http://creativecommons.org/ns#"
   xmlns:rdf="http://www.w3.org/1999/02/22-rdf-syntax-ns#"
   xmlns:svg="http://www.w3.org/2000/svg"
   xmlns="http://www.w3.org/2000/svg"
   viewBox="0 0 381.53333 389.04001"
   height="389.04001"
   width="381.53333"
   xml:space="preserve"
   id="svg2"
   version="1.1"><metadata
     id="metadata8"><rdf:RDF><cc:Work
         rdf:about=""><dc:format>image/svg+xml</dc:format><dc:type
           rdf:resource="http://purl.org/dc/dcmitype/StillImage" /></cc:Work></rdf:RDF></metadata><defs
     id="defs6" /><g
     transform="matrix(1.3333333,0,0,-1.3333333,0,389.04)"
     id="g10"><g
       transform="scale(0.1)"
       id="g12"><path
         id="path14"
         style="fill:#ccc;fill-opacity:1;fill-rule:nonzero;stroke:none"
         d="m 1013.02,145.988 41.55,124.903 -72.785,9.382 3.789,11.387 c 27.746,-0.508 48.426,1.34 76.446,6.856 19.11,3.672 21.98,4.464 33.63,9.316 l 11.39,-3.789 -56.7,-170.469 38.37,-27.586 -3.27,-9.8239 -120.975,40.2419 3.265,9.817 45.29,-0.235" /><path
         id="path16"
         style="fill:#ccc;fill-opacity:1;fill-rule:nonzero;stroke:none"
         d="m 1182.93,12.3555 6.87,58.789 14.8,-1.7304 10.41,-42.8907 c 8.49,-2.2461 14.97,-3.8359 27.72,-5.3203 25.08,-2.9297 38.67,-0.7734 52.56,7.6055 13.54,8.8398 22.71,23.1953 24.64,39.6406 3.79,32.4688 -16.42,55.6718 -51.78,59.8048 l -13.56,1.582 2.16,18.504 4.93,-0.574 c 39.06,-4.563 60.4,10.449 64.43,44.98 3.66,31.25 -12.52,49.805 -46.23,53.738 -9.86,1.153 -23.53,1.926 -31.9,1.653 l -24.17,-46.36 -14.38,1.68 6.68,57.148 c 31.33,4.258 60.69,5.833 78.77,3.723 50.98,-5.957 79.55,-32.637 75.22,-69.64 -3.89,-33.301 -30.98,-54.727 -73.15,-58.965 44.53,-7.703 70.43,-35.7308 66.15,-72.3246 C 1357.71,17.3555 1313.14,-7.44922 1249.42,0 c -17.68,2.0625 -27.91,3.67188 -59.96,11.1719 l -6.53,1.1836" /><path
         id="path18"
         style="fill:#ccc;fill-opacity:1;fill-rule:nonzero;stroke:none"
         d="m 1496.82,78.625 6.73,11.1133 20.22,32.9567 21.76,38.106 25.31,43.898 3.83,7.071 13.12,-123.4887 z m 100.31,-78.429687 35,3.710937 -6.52,61.32815 38.69,4.1133 -2.83,26.7578 -38.7,-4.1133 -18.7,176.1718 -16.47,-1.746 -125.15,-205.1875 1.39,-13.1641 126.79,13.457 6.5,-61.328087" /><path
         id="path20"
         style="fill:#ccc;fill-opacity:1;fill-rule:nonzero;stroke:none"
         d="m 1789.82,37.5898 -19.18,56.004 14.1,4.8242 27.9,-34.1992 c 8.63,1.6406 15.16,3.0078 27.3,7.1601 23.88,8.1836 35.21,15.9961 44.14,29.5511 8.38,13.808 10.47,30.711 5.12,46.375 -10.6,30.937 -38.84,43.144 -72.52,31.621 l -12.93,-4.422 -6.03,17.617 4.71,1.609 c 37.2,12.735 49.97,35.489 38.71,68.379 -10.19,29.766 -32.78,39.532 -64.89,28.536 -9.41,-3.211 -22.07,-8.426 -29.49,-12.286 l -1.8,-52.234 -13.71,-4.699 -18.64,54.433 c 26.44,17.364 52.24,31.446 69.48,37.344 48.55,16.633 85.82,4.895 97.89,-30.351 10.86,-31.727 -4.33,-62.743 -40.55,-84.766 43.5,12.266 78.95,-1.844 90.89,-36.699 15.02,-43.86 -14.5,-85.469 -75.2,-106.2503 -16.83,-5.7617 -26.76,-8.7187 -58.91,-15.789 l -6.39,-1.7579" /><path
         id="path22"
         style="fill:#ccc;fill-opacity:1;fill-rule:nonzero;stroke:none"
         d="m 567.379,379.074 c -24.274,20.781 -26.887,58.348 -5.547,83.262 21.332,24.922 58.856,28.133 83.129,7.352 24.594,-21.055 27.203,-58.622 5.867,-83.543 -21.332,-24.922 -58.855,-28.137 -83.449,-7.071" /><path
         id="path24"
         style="fill:#ccc;fill-opacity:1;fill-rule:nonzero;stroke:none"
         d="m 499.41,754.688 -9.015,-5.672 -31.684,22.332 L 261.5,647.18 l 6.449,-38.235 -9.011,-5.672 -59.93,95.184 9.012,5.676 31.914,-22.707 197.211,124.172 -6.676,38.593 9.015,5.672 59.926,-95.175" /><path
         id="path26"
         style="fill:#ccc;fill-opacity:1;fill-rule:nonzero;stroke:none"
         d="m 415.613,879.316 -9.937,-3.816 -26.746,28.074 -217.582,-83.465 -1.106,-38.761 -9.945,-3.821 -25.18,65.637 136.188,218.356 -167.8636,-64.399 -1.1016,-38.762 -9.9453,-3.816 -34.1797,89.107 9.9375,3.81 26.8985,-28.46 245.4292,94.14 4.575,-11.93 -157.836,-249.921 193.32,74.16 0.949,39.153 9.95,3.816 34.175,-89.102" /><path
         id="path28"
         style="fill:#ccc;fill-opacity:1;fill-rule:nonzero;stroke:none"
         d="m 277.496,1319.28 -62.594,-2.13 -0.523,15.33 52.09,22.66 c 1.324,11.13 1.461,19.66 1.054,31.58 -1.347,39.6 -17.812,59.93 -47.617,58.92 -20.863,-0.72 -30.41,-8.28 -48.574,-38.32 l -25.402,-42.64 c -13.282,-23.05 -19.852,-30.52 -32.344,-39.04 -10.844,-7.19 -21.8126,-10.55 -35.8672,-11.03 -44.7071,-1.52 -76.05474,30.23 -77.7188,79.21 -0.25,7.23 0.597656,20.05 1.46875,32.02 0.95703,9.4 1.97266,17.12 3.07813,22.27 l 3.22265,18.01 1.07422,6.01 60.46485,2.05 0.5352,-15.75 -50.4141,-21.75 -0.3086,-3.42 c -0.4766,-11.1 -0.8008,-14.1 -0.543,-21.77 1.4492,-42.57 15.3321,-62.13 43.4336,-61.18 19.5899,0.67 27.8867,7.35 45.6213,37.37 l 26.992,46.1 c 16.531,27.84 18.969,31.34 30.617,39.83 11.649,8.5 26.403,13.27 42.586,13.81 47.266,1.61 78.695,-32.7 80.578,-88.06 0.453,-13.2 -1.433,-32.86 -5.07,-51.32 l -4.723,-24.04 -1.117,-4.72" /><path
         id="path30"
         style="fill:#ccc;fill-opacity:1;fill-rule:nonzero;stroke:none"
         d="m 11.1367,1579.47 -10.468731,1.97 20.703131,110.12 10.4687,-1.97 8.043,-37.93 167.4802,-31.48 c 50.246,-9.45 76.535,8.15 85.664,56.72 9.606,51.08 -7.918,77.78 -56.488,86.92 l -169.5742,31.88 -21.2734,-32.42 -10.4648,1.97 18.4218,97.98 10.4688,-1.97 7.9648,-38.35 160.363,-30.14 c 42.707,-8.03 64.528,-23.41 76.5,-54.27 8.18,-21.05 9.164,-41.18 3.262,-72.58 -13.305,-70.76 -47.422,-97.72 -108.969,-86.15 l -170.8357,32.12 -21.2656,-32.42" /><path
         id="path32"
         style="fill:#ccc;fill-opacity:1;fill-rule:nonzero;stroke:none"
         d="m 131.531,2013.06 11.813,26.92 c 9.758,22.24 19.234,31.11 36.168,35.78 14.519,3.4 30.277,1.13 46.273,-5.88 16.387,-7.19 28.324,-17.09 35.27,-29.9 9.25,-17.09 8.597,-34.48 -3.043,-61.01 l -7.875,-17.94 z m 262.426,-66.75 -9.754,4.28 -31.461,-34.59 -87.39,38.35 11.984,27.31 c 25.336,57.74 11.605,107.03 -35.602,127.74 -22.242,9.76 -43.046,10.05 -62.988,0.65 -21.066,-9.82 -35.09,-26.94 -50.152,-61.27 l -43.3049,-98.71 9.75,-4.27 28.0349,26.77 213.41,-93.63 -0.722,-38.76 9.75,-4.28 48.445,110.41" /><path
         id="path34"
         style="fill:#ccc;fill-opacity:1;fill-rule:nonzero;stroke:none"
         d="m 272.969,2274.34 17.5,24.15 c 19.254,26.56 46.469,29.99 74.758,9.48 28.632,-20.75 35.789,-52.25 17.289,-77.77 l -16.754,-23.11 z m 115.597,-64.84 164.454,-3.96 40.003,55.19 -8.625,6.25 -31.921,-17.91 -145.118,-0.57 c 19.235,38.15 12.059,75.45 -18.984,97.95 -17.594,12.75 -37.43,16.6 -56.68,11.09 -19.257,-5.51 -29.769,-14.21 -49.523,-41.46 l -67.758,-93.48 8.625,-6.25 33.074,20.22 188.692,-136.77 -8.926,-37.73 8.625,-6.25 66.008,91.07 -8.625,6.25 -33.328,-20.57 -88.996,64.51 9.003,12.42" /><path
         id="path36"
         style="fill:#ccc;fill-opacity:1;fill-rule:nonzero;stroke:none"
         d="m 574.215,2423.23 77.015,-87.15 70.555,62.35 -11.594,51.73 10.532,9.3 38.664,-53.39 -152.606,-134.86 -7.054,7.99 16.945,34.87 -154.324,174.63 -36.688,-12.53 -7.055,7.99 151.329,133.72 42.312,-47.89 -10.531,-9.31 -46.039,21.86 -68.641,-60.65 75.891,-85.88 57.789,51.06 -14.539,38.32 9.578,8.47 61.785,-69.92 -9.582,-8.46 -35.961,18.82 -57.781,-51.07" /><path
         id="path38"
         style="fill:#ccc;fill-opacity:1;fill-rule:nonzero;stroke:none"
         d="m 910.309,2576.04 -16.743,229.53 72.672,35.65 4.696,-9.56 -25.95,-29.34 102.636,-209.23 39.08,2.56 4.69,-9.56 -100.976,-49.54 -4.691,9.57 25.947,29.33 -92.506,188.58 17.871,-256.03 -7.648,-3.75 -189.996,171.59 92.5,-188.57 39.082,2.56 4.691,-9.56 -85.684,-42.03 -4.687,9.56 25.562,29.15 -102.636,209.23 -38.696,-2.38 -4.695,9.56 75.36,36.97 170.121,-154.29" /><path
         id="path40"
         style="fill:#ccc;fill-opacity:1;fill-rule:nonzero;stroke:none"
         d="m 1197.61,2749.88 41.12,128.09 16.29,-120.32 z m 73.25,-109.18 -29.6,-19.49 1.43,-10.55 189.98,25.73 -1.63,65.99 -15.2,-2.06 -19.52,-49.5 -84.86,-11.5 -15.03,111.04 68.39,9.27 19.44,-35.64 13.09,1.78 -12.52,92.45 -13.09,-1.77 -9.2,-39.94 -68.4,-9.26 -15.96,117.79 82.75,11.21 26.14,-43.76 14.77,2 -8.57,63.33 -167.19,-22.64 -99.6,-274.03 -29.61,-19.49 1.43,-10.55 92.46,12.52 -1.44,10.55 -33.77,11.33 34.02,104.36 67.97,9.2 13.32,-98.37" /><path
         id="path42"
         style="fill:#ccc;fill-opacity:1;fill-rule:nonzero;stroke:none"
         d="m 1749.16,2855.14 43.83,-12.53 c 37.7,-10.76 57.42,-27.03 68.71,-57.28 9.6,-25.35 9.49,-53.67 -0.34,-88.08 -11.47,-40.14 -29.9,-65.9 -58.69,-82.93 -26.04,-15.16 -46.87,-16.74 -82.11,-6.67 l -38.92,11.11 z m -30.18,-266.98 c 40.97,-11.7 71.04,-11.88 100.08,-0.23 40.02,16.03 69.86,52.26 84.02,101.83 11.01,38.51 9.01,71.87 -5.68,102.65 -16.33,34.35 -40.97,52.02 -94.22,67.23 l -122.08,34.88 -2.92,-10.25 30.31,-24.16 -64.01,-224.08 -38.51,-4.51 -2.92,-10.25 115.93,-33.11" /><path
         id="path44"
         style="fill:#ccc;fill-opacity:1;fill-rule:nonzero;stroke:none"
         d="m 1899.52,2523.85 4.96,9.43 38.61,-3.46 108.45,206.28 -24.74,29.85 4.96,9.43 99.55,-52.34 -4.95,-9.43 -38.99,3.66 -108.45,-206.28 25.11,-30.05 -4.95,-9.42 -99.56,52.33" /><path
         id="path46"
         style="fill:#ccc;fill-opacity:1;fill-rule:nonzero;stroke:none"
         d="m 2277.91,2377.36 -50.52,-62.16 -5.37,2.17 c -33.29,14.43 -56.48,27.78 -78.96,46.05 -36.7,29.83 -53.97,59.24 -55.56,95.12 -1.53,35.27 10.78,68.65 36.84,100.72 30.36,37.36 68.12,58.83 108.47,61.17 37.34,2.05 70.39,-9.98 108.07,-40.62 22.48,-18.27 35.35,-31.48 54.26,-56.18 l 3.5,-4.49 -40.04,-49.26 -12.56,10.22 18.17,52.75 c -6.26,7.84 -13.33,14.68 -24.57,23.81 -34.38,27.95 -60.85,37.93 -91.9,33.52 -32.9,-4.01 -61.32,-22.08 -87.92,-54.82 -48.63,-59.84 -45.23,-119.15 9.65,-163.76 11.9,-9.67 24.67,-18.95 32.69,-23.27 l 44.34,54.55 -18.63,33.82 6.7,8.26 87.29,-70.94 -6.72,-8.27 -37.23,11.61" /><path
         id="path48"
         style="fill:#ccc;fill-opacity:1;fill-rule:nonzero;stroke:none"
         d="m 2265.55,2264.65 8.61,6.25 33.09,-20.2 188.63,136.87 -8.95,37.72 8.61,6.25 41.29,-56.89 -75.13,-246.12 145.52,105.59 -8.94,37.72 8.61,6.26 56.06,-77.24 -8.63,-6.26 -33.34,20.56 -212.75,-154.39 -7.51,10.34 87.88,282.23 -167.58,-121.61 9.2,-38.07 -8.62,-6.25 -56.05,77.24" /><path
         id="path50"
         style="fill:#ccc;fill-opacity:1;fill-rule:nonzero;stroke:none"
         d="m 2442.14,2001.07 9.67,4.47 28.54,-26.25 211.61,97.63 -1.46,38.74 9.67,4.46 47.12,-102.13 -9.67,-4.46 -28.71,26.63 -211.61,-97.62 1.63,-39.14 -9.67,-4.45 -47.12,102.12" /><path
         id="path52"
         style="fill:#ccc;fill-opacity:1;fill-rule:nonzero;stroke:none"
         d="m 2553.73,1786.69 231.06,62.77 -16.86,62.08 -54.08,5.62 -4.01,14.8 67.42,18.32 61.88,-227.78 -67.43,-18.31 -3.9,14.39 43.78,32.2 -16.3,60.03 -231.07,-62.77 -2.66,-47.08 -10.27,-2.79 -33.96,124.99 10.27,2.79 26.13,-39.26" /><path
         id="path54"
         style="fill:#ccc;fill-opacity:1;fill-rule:nonzero;stroke:none"
         d="m 2813.11,1519.43 c -13.43,-4.49 -20.13,-6.95 -37.72,-13.79 l -68.21,-26.79 -3.73,76.17 z m -122.21,-47.78 -86.59,-34.95 -17.32,31.57 -10.65,-0.52 5.3,-108.08 10.63,0.52 14.16,33.11 255.02,105.89 -1.16,23.83 -264.81,94.11 -17.34,32 -10.64,-0.52 4.55,-93.2 10.65,0.52 14.16,33.11 89.67,-28.02 4.37,-89.37" /><path
         id="path56"
         style="fill:#ccc;fill-opacity:1;fill-rule:nonzero;stroke:none"
         d="m 2587.99,1259.06 236.26,-38.88 10.45,63.48 -46.84,27.57 2.49,15.14 68.94,-11.35 -38.33,-232.9 -68.94,11.35 2.42,14.71 53.21,11.11 10.1,61.37 -236.26,38.88 -21.97,-41.72 -10.51,1.73 21.03,127.81 10.51,-1.73 7.44,-46.57" /><path
         id="path58"
         style="fill:#ccc;fill-opacity:1;fill-rule:nonzero;stroke:none"
         d="m 2529.39,1105.11 10.08,-3.44 2.55,-38.68 220.53,-75.314 25.69,29.044 10.08,-3.44 -36.35,-106.444 -10.08,3.449 -2.41,39.09 -220.55,75.305 -25.81,-29.453 -10.08,3.445 36.35,106.438" /><path
         id="path60"
         style="fill:#ccc;fill-opacity:1;fill-rule:nonzero;stroke:none"
         d="m 2483.83,943.438 55.27,-29.461 -7.23,-13.536 -56.44,6.434 c -6.72,-8.973 -11.1,-16.289 -16.72,-26.816 -18.64,-34.961 -14.55,-60.801 11.76,-74.832 18.43,-9.825 30.48,-8.039 61.23,8.875 l 43.34,24.211 c 23.02,13.308 32.44,16.492 47.53,17.617 12.98,0.8 24.16,-1.778 36.57,-8.391 39.47,-21.055 50.73,-64.238 27.67,-107.469 -3.41,-6.386 -10.56,-17.062 -17.29,-26.992 -5.54,-7.668 -10.28,-13.828 -13.81,-17.746 l -11.81,-13.984 -3.94,-4.657 -53.37,28.465 7.42,13.918 54.53,-6.398 1.98,2.812 c 5.96,9.375 7.75,11.797 11.35,18.567 20.05,37.597 17.82,61.484 -6.99,74.707 -17.3,9.226 -27.83,7.597 -58.2,-9.524 l -46.43,-26.414 c -28.24,-15.84 -32.11,-17.648 -46.44,-19.172 -14.33,-1.531 -29.5,1.731 -43.79,9.348 -41.72,22.254 -51.77,67.684 -25.71,116.563 6.21,11.648 17.7,27.742 30.07,41.902 l 16.11,18.449 3.34,3.524" /><path
         id="path62"
         style="fill:#ccc;fill-opacity:1;fill-rule:nonzero;stroke:none"
         d="m 2335.39,415.879 c -23.41,-21.746 -61.03,-20.066 -83.36,3.965 -22.33,24.035 -21.25,61.679 2.15,83.429 23.73,22.04 61.35,20.36 83.68,-3.671 22.33,-24.036 21.25,-61.68 -2.47,-83.723" /><path
         id="path64"
         style="fill:#ccc;fill-opacity:1;fill-rule:nonzero;stroke:none"
         d="m 1356.19,1359.39 c 0,-1.11 0.44,-2.07 0.71,-3.1 -0.18,-1.09 -0.35,-2.19 -0.35,-3.2 0,-6.82 4.02,-11.67 7.67,-16.06 l 4.31,-5.65 c 5.39,-8.17 10.85,-11.61 19.65,-15.46 6.39,-2.78 12.04,-1.06 16.59,0.34 3.98,1.2 7.12,2.17 10.64,0.83 l 5.05,-3.45 8.53,-5.21 c 7.28,-2.23 12.64,0.69 17.37,3.25 l 9.2,3.55 10.08,0.69 13.48,1.13 3.43,0.51 c 10.68,1.57 20.75,3.05 24.35,8.3 0,0.01 1.13,5.41 1.13,5.41 l -6.95,7.27 -2.52,1.61 -11.28,4.95 -2.82,0.76 -6.19,2.88 -12.93,3.85 -11.7,-3.34 -7.82,-2.64 -15.02,0.87 -2.8,0.51 -8,3.69 -12.95,4.89 c -7.84,0.36 -12.81,-2.02 -18.54,-4.78 l -5.47,-2.58 -4.44,-1.42 c -6.82,-0.25 -8.13,0.49 -12.58,8.73 1.03,1.98 5.77,10.86 5.77,10.86 0.83,1.07 14.58,18.18 17.2,21.42 0.02,-0.02 0.29,-0.22 0.29,-0.22 0.06,0.04 0.1,0.22 0.15,0.28 l 0.05,-0.03 c 0.18,0.27 0.26,0.78 0.48,1.1 0.92,1.21 2.06,2.5 2.06,4.15 0,0.97 -0.34,1.95 -1.2,2.89 -2.82,3.03 -6.49,0.46 -7.69,-0.41 -3.87,-2.72 -26.94,-22.82 -26.94,-37.17" /><path
         id="path66"
         style="fill:#ccc;fill-opacity:1;fill-rule:nonzero;stroke:none"
         d="m 1329.21,1463.55 8.81,0.93 -0.99,-1.1 c -3.87,-3.54 -6.93,-6.33 -5.73,-10.08 0.4,-1.23 1.63,-3.37 5.38,-3.81 5.61,-0.63 8.64,3.05 10.84,5.72 l 2.6,2.83 6.7,4.57 9.57,7.13 9.84,13.79 c 3.3,7.88 3.25,13.42 3.19,21.05 0,0.01 -3.66,18.29 -3.66,18.29 l -0.71,2.15 -1.46,4.78 -5.76,14.11 c -4.06,6.96 -14.23,22.74 -21.15,18.89 -4.04,-2.3 -4.09,-6.09 -4.09,-7.92 l -0.05,-1.29 c -0.04,0 -3.73,-1.55 -3.73,-1.55 -6.19,-1.5 -11.68,1.65 -18.65,5.66 -5.78,3.32 -12.35,7.09 -20.32,8.37 -15.63,2.48 -25.14,2.41 -40.68,-0.41 -13.7,-2.43 -22.15,-6.55 -33.47,-16.34 -6.72,-5.77 -12.01,-10.34 -15.91,-20.12 l -6.73,-22.19 0.12,0.37 c -0.29,-3.21 1.03,-5.02 2.2,-5.95 1.06,-0.87 2.26,-1.16 3.44,-1.31 1.54,-4.17 7.44,-8.32 22.28,-17.66 7.35,-4.62 30.91,-8.88 43.68,-8.82 0.11,0 0.25,-0.06 0.34,-0.06 l 3.31,-0.03 c 0,0 0.01,0.61 0.01,0.69 0.39,0.06 0.79,0.12 1.12,0.19 0.1,0 0.41,0.02 0.54,0.02 0.8,-0.02 1.55,-0.23 2.35,-0.23 3.28,0 6.42,0.48 9.46,1.2 8.44,0.69 17.89,1.48 17.89,1.48 l 17.05,3.78 c 7.07,2.09 12.69,3.71 20.9,2.21 -1.04,-3.54 -2.35,-7.29 -4.08,-11.5 0,0.04 0.01,0.09 0.01,0.15 -0.37,3.54 -3.71,6.07 -7.24,5.7 l -8.35,-0.89 -16.1,-2.44 -23.15,-5.64 c -3.44,-0.84 -5.55,-4.32 -4.72,-7.77 0.85,-3.45 4.31,-5.55 7.78,-4.72 l 23.15,5.66 z m -91.28,29.78 c -4.22,2.67 -12.84,8.16 -16.01,10.99 0.35,2.5 0.92,4.67 1.52,6.84 0.4,0.77 0.81,1.5 1.2,2.28 l 7.53,11.88 c 4.04,4.21 7.17,7.45 10.5,10.19 0.65,0.4 1.53,0.79 2.26,1.19 -2.82,-5.81 -4.55,-12.25 -4.55,-19.18 0,-10.89 4.04,-20.74 10.53,-28.36 -5.33,1.03 -10.13,2.36 -12.98,4.17 z m 56.12,24.82 c -2.94,0 -5.36,2.55 -5.36,5.7 0,3.14 2.42,5.68 5.36,5.68 2.98,0 5.38,-2.54 5.38,-5.68 0,-3.15 -2.4,-5.7 -5.38,-5.7 z m 29.15,-25.15 -7.5,-1.7 c 5.43,7.31 8.8,16.32 8.8,26.22 0,6.75 -1.62,13.05 -4.3,18.74 3.29,-1.29 6.34,-2.62 9.01,-4.03 2.28,-1.89 4.56,-3.97 6.78,-6.51 8.19,-9.37 11.94,-18.15 14.1,-28.75 -0.01,-0.83 -0.2,-1.6 -0.24,-2.4 -10.78,1.8 -19.23,0.63 -26.65,-1.57" /><path
         id="path68"
         style="fill:#ccc;fill-opacity:1;fill-rule:nonzero;stroke:none"
         d="m 1224.11,1608.88 c 20.35,4.54 32.21,5.26 52.84,3.24 l 10.21,-0.71 17.63,-2.26 20.64,-7.11 12.35,-4.8 c 3.31,-1.26 6.9,0.44 8.16,3.74 1.29,3.31 -0.49,7.08 -3.81,8.38 l -11.88,4.59 -22.3,7.65 -20.13,2.65 -9.61,0.65 c -21.96,2.17 -35.26,1.35 -56.91,-3.49 -3.46,-0.77 -5.63,-4.21 -4.86,-7.67 0.78,-3.46 4.21,-5.64 7.67,-4.86" /><path
         id="path70"
         style="fill:#ccc;fill-opacity:1;fill-rule:nonzero;stroke:none"
         d="m 1473.94,1176.68 c -0.05,-0.03 -0.09,-0.1 -0.15,-0.13 -5.75,-4.68 -8.77,-7.02 -15.02,-8.82 l -3.7,-1.08 c -7.71,-2.31 -9.79,-2.91 -24.33,-0.63 l -10.72,2.5 -17.02,2.94 -4.38,0.17 c -8.58,0.37 -11.16,0.49 -12.37,-3 l -0.92,-2.69 2.37,-2.2 5.93,-5.33 c 8.95,-8.36 18.2,-16.99 40.2,-16.79 l 8.24,0.78 9.73,0.25 12.57,-5.49 12.19,-6.95 -2.31,9.86 -3.69,16.94 c -0.03,0.28 -0.03,0.55 -0.03,0.84 0,4.75 2.94,7.81 8.53,11.95 h -0.01 c 0.06,0.06 0.11,0.09 0.15,0.12 l -5.26,6.76" /><path
         id="path72"
         style="fill:#ccc;fill-opacity:1;fill-rule:nonzero;stroke:none"
         d="m 1537.03,1226.05 v 0 l -1.71,3.34 c -3.05,6.86 -4.32,11.09 -1.53,15.02 l -5.79,6.11 c -0.42,-0.27 -0.72,-0.88 -1.14,-1.18 l -0.06,0.03 c -0.03,-0.03 -0.01,-0.07 -0.03,-0.12 -3.6,-2.75 -6.9,-7.05 -6.9,-14.78 0,-2.32 0.41,-5.04 1.05,-7.95 -3.08,-0.24 -5.99,-0.02 -9.71,1.03 l -15.37,7.41 -13.49,13 -5.4,5.84 c -4.3,4.16 -8.91,4.27 -12.96,4.33 l -4.27,0.27 c -0.52,0.07 -7.08,-0.2 -12.42,-1.32 -1.34,-0.15 -2.69,-0.27 -2.69,-0.27 0.32,0.03 0.5,-0.35 0.84,-0.42 -0.24,-0.06 -0.41,-0.15 -0.62,-0.24 0.03,0.07 0.19,0.39 0.19,0.39 l -10.09,-2.74 c -0.02,0 -2.82,0.42 -2.82,0.42 l -3.84,0.9 -4.32,0.79 -9.51,0.85 -15.78,-5.42 -10.32,-8.52 -4.75,-4.68 -4.65,-4.41 -11.05,-7.68 c -6.4,-2.05 -10.27,-1.78 -17.59,-0.69 l -9.48,2.62 c 2.79,6.86 0.9,12.77 -1.06,18.46 l -1.38,4.03 -8.34,-1.77 c 0.41,-3.36 0.72,-6.3 0.72,-8.88 0,-3.36 -0.89,-6 -2.46,-8.39 v 0 l -2.42,-3.04 c -4.97,-4.33 -9.43,-6.57 -13.83,-6.58 -2.07,0.35 -4.18,0.46 -6.13,1.29 h -0.03 l -3.37,-7.87 c 3.18,-1.37 6.35,-2.03 9.53,-2.03 8.05,-1.06 15.52,0.86 21.25,5.25 3.88,-4.45 8.06,-7.71 14.72,-10.47 10.42,-4.35 18,-3.74 27.61,-2.95 l 4.41,0.33 14.47,2.08 17.73,1.8 8.93,-2.28 12.99,-2.73 11.85,3.91 c 3.54,1.92 5.67,2.99 8.72,2.49 0,0 6.89,-1.94 11.06,-3.1 1.19,-0.38 2.43,-0.76 2.43,-0.76 1.01,-0.29 2.25,-0.35 3.53,-0.05 3.01,-0.45 16.59,-2.49 16.59,-2.49 14.91,-1.93 27.56,0.76 36.6,7.77 l 2.19,2.56 c 3.4,-3.22 7.89,-5.6 13.11,-6.36 8.25,-1.24 15.86,1.64 19.87,7.45 l 4.74,6.88 -13.25,-0.26 c -8.28,-0.28 -12.37,0.12 -14.57,3.78" /><path
         id="path74"
         style="fill:#ccc;fill-opacity:1;fill-rule:nonzero;stroke:none"
         d="m 1039.68,1721.27 c -0.89,-0.06 0.91,-0.09 0,0 v 0" /><path
         id="path76"
         style="fill:#ccc;fill-opacity:1;fill-rule:nonzero;stroke:none"
         d="m 1636.53,1554.59 c -12.4,3.93 -19.61,5.6 -32.16,5.85 -18.71,0.36 -30.4,0.6 -48.02,-5.91 -11.12,-4.14 -19.17,-7.57 -29.06,-17.33 l -5.15,-4.84 c -6.77,-6.19 -13.19,-12.03 -15.2,-23.43 -1.56,-8.94 -1.55,-14.43 0.09,-22.61 l 1.95,-9.83 11.58,16.51 c -0.34,-2.88 -0.65,-5.79 -0.76,-9.1 l -0.3,-8.97 8.58,2.61 c 11.24,3.37 15.72,1.93 22.53,-0.24 l 11.84,-3.06 15.85,-3.69 27.32,-4.44 c 0.02,0 6.99,-0.08 6.99,-0.08 11.16,-0.21 20.82,-0.38 33.45,5.27 l 26.92,15.55 -0.36,3.47 c 0,0.17 -0.05,0.31 -0.05,0.46 l 3.54,2.76 c 6.22,4.81 -1.15,27.33 -7.23,36.73 -10.95,16.99 -17.83,19.73 -32.35,24.32 z m -71.98,-67.69 -10.01,2.62 c -5.77,1.87 -12.06,3.01 -20.75,1.89 1.19,9.39 3.52,17.11 9.31,26.29 1.19,1.86 2.48,3.24 3.73,4.77 l 6.47,5.34 c 3.5,3 6.46,5.08 9.55,6.81 -3.82,-6.51 -6.15,-14.05 -6.15,-22.2 0,-9.63 3.17,-18.44 8.35,-25.63 z m 47.27,24.77 c -2.97,0 -5.37,2.54 -5.37,5.69 0,3.14 2.4,5.69 5.37,5.69 2.97,0 5.38,-2.55 5.38,-5.69 0,-3.15 -2.41,-5.69 -5.38,-5.69 z m 28.98,-28.64 c -5.69,-2.55 -10.48,-3.54 -15.52,-3.93 9.4,7.93 15.54,19.85 15.54,33.32 0,5.49 -1.1,10.69 -2.91,15.54 3.47,-2.37 6.92,-5.16 10.8,-8.78 5.42,-5.11 8.14,-13.48 9.85,-19.82 0.26,-1.85 0.57,-3.68 0.67,-5.67 -4.84,-2.8 -18.43,-10.66 -18.43,-10.66" /><path
         id="path78"
         style="fill:#ccc;fill-opacity:1;fill-rule:nonzero;stroke:none"
         d="m 1589.89,1460.82 -10.24,4 -20.79,6.29 c -0.02,0 -27.23,-0.8 -27.23,-0.8 l -6.87,-0.93 c -3.51,-0.47 -6.05,-3.72 -5.58,-7.23 0.48,-3.52 3.64,-6 7.16,-5.53 l 7.06,0.96 23.75,0.8 17.48,-5.37 11.17,-4.37 c 3.31,-1.28 6.74,0.45 8.04,3.76 1.29,3.3 -0.63,7.13 -3.95,8.42" /><path
         id="path80"
         style="fill:#ccc;fill-opacity:1;fill-rule:nonzero;stroke:none"
         d="m 2104.29,2121.95 c -0.79,0.24 -1.62,0.41 -2.44,0.51 l -11.31,1.48 c -10.97,2.28 -22.03,3.03 -33.02,2.64 -20.34,-0.72 -40.41,-5.79 -59.32,-14.68 0.47,1.71 1.23,3.37 1.58,5.1 4.95,24.02 -0.8,49.43 -15.99,75.19 -27.66,47.05 -87.27,95.29 -173.08,138.94 15.06,11.66 24.7,30.12 24.7,50.53 0,1.45 -0.06,2.91 -0.15,4.37 -1.16,16.83 -8.99,31.52 -20.49,42.19 -1.66,2.28 -3.66,4.36 -6.41,5.62 -0.41,0.18 -0.96,0.3 -1.38,0.51 0.09,-0.03 0.21,-0.03 0.31,-0.07 0,0 -1.95,0.75 -2.35,0.91 -6.44,3.97 -13.4,6.66 -21.06,8.01 -0.17,0.08 -1.55,0.58 -1.55,0.58 0.17,-0.05 0.22,-0.21 0.37,-0.28 -0.92,0.15 -1.74,0.58 -2.68,0.69 -91.04,30.97 -230.63,34.31 -384.22,9.16 -138.96,18.88 -257.46,12.92 -339.85,-15.89 -0.56,-0.08 -1.06,-0.34 -1.61,-0.42 0.15,0.07 0.21,0.23 0.35,0.28 0,0 -1.35,-0.5 -1.53,-0.58 -7.65,-1.36 -14.64,-4.04 -21.07,-8.03 -0.39,-0.16 -2.34,-0.89 -2.34,-0.89 0.11,0.04 0.21,0.01 0.3,0.05 -0.42,-0.18 -0.94,-0.31 -1.36,-0.51 -2.7,-1.25 -4.67,-3.32 -6.33,-5.55 -11.52,-10.67 -19.4,-25.37 -20.54,-42.23 -0.12,-1.98 -0.2,-3.94 -0.2,-5.86 0,-16.77 5.02,-31.24 13.83,-41.86 -101.247,-53.68 -166.891,-115.75 -178.102,-173.87 -2.246,-11.72 -2.41,-23.25 -0.078,-34.53 0.429,-2.14 1.339,-4.11 1.925,-6.19 -12.675,3.61 -25.683,5.58 -38.8,5.75 -10.196,0.13 -20.457,-0.76 -30.665,-2.87 1.25,0.21 -10.066,-1.28 -10.066,-1.28 -0.82,-0.1 -1.641,-0.26 -2.434,-0.49 -72.82,-20.59 -136.152,-81.84 -184.472,-170.23 -1.707,-1.79 -2.86,-4.01 -3.485,-6.63 -67.89,-128.01 -104.96,-310.58 -94.894,-508.7 8.203,-161.75 47.023,-312.44 112.258,-435.757 13.211,-24.766 22.988,-42.649 38.113,-65 -0.215,0.3 69.629,-107.989 69.629,-107.989 21.445,-31.789 63,-79.113 87.383,-99.582 -0.282,0.246 -2.039,2.102 -2.313,2.375 l 16.258,-15.644 10.117,-8.274 c 0.645,-0.527 2.082,-1.648 2.785,-2.078 l 23.172,-13.867 c 23.711,-12.266 39.121,-17.578 65.188,-15.957 3.926,0 7.82,0.32 11.699,0.898 28.172,4.129 54.473,23.047 69.766,51.493 0.281,0.546 1.601,3.242 1.601,3.242 2.02,4.101 3.621,7.383 4.949,10.304 32.126,-30.05 67.256,-59.211 104.996,-87.082 -5.9,-9.734 -9.59,-20.925 -9.59,-32.89 0,-9.063 1.92,-17.782 5.35,-25.782 -7.19,0.071 -14.33,0.168 -21.07,0.528 -0.01,0 -0.03,0 -0.04,0 -6.76,0 -13.27,-0.879 -19.56,-2.227 -37.9,-8.074 -65.836,-38.855 -65.836,-75.73 0,-22.188 9.051,-41.68 23.286,-55.949 10.25,-10.301 23.12,-17.989 37.62,-21.649 1.13,-0.683 1.86,-1.867 3.18,-2.277 12.4,-3.828 25.56,-6.738 39.09,-9.199 96.01,-17.539 218.84,-0.95 348.49,44.875 0.76,-0.411 1.34,-0.989 2.18,-1.282 145.4,-49.98 278.19,-61.433 374.69,-32.597 0.96,0.293 2.07,0.449 3.03,0.754 0.84,0.242 1.43,0.769 2.02,1.308 2.78,1.121 5.54,2.235 8.3,3.367 2.82,1.016 5.58,2.071 8.26,3.36 26.67,12.871 45.5,39.59 45.5,71.828 0,34.285 -24.23,63.144 -57.63,73.582 -8.5,2.648 -17.43,4.414 -26.88,4.414 -6.88,-0.359 -14.29,-0.488 -21.96,-0.527 3.41,7.968 5.32,16.699 5.32,25.742 0,9.258 -3.77,19.914 -8.06,28.918 36.93,27.402 71.34,56.191 102.97,85.867 0.9,-4.238 1.93,-8.32 3.02,-12.547 l 2.43,-9.66 c 0.33,-1.375 0.91,-2.969 1.59,-4.227 13.11,-24.406 35.66,-41.308 61.47,-47.422 6.21,-1.476 12.55,-2.363 19.05,-2.519 28.54,-4.426 44.39,2.273 65.18,12.988 0.94,0.516 24.11,14.383 24.11,14.383 0.7,0.441 2.14,1.563 2.77,2.102 l 10.92,8.906 15.99,15.672 c -0.32,-0.321 -2.49,-2.762 -2.82,-3.047 24.33,20.449 65.9,67.754 87.18,99.277 0.19,0.305 70.04,108.594 70.04,108.594 14.8,21.906 29.01,45.527 42.02,69.902 68.02,127.402 106.87,278.682 115.55,449.662 10.04,197.94 -26.95,380.35 -94.72,508.34 l -0.02,0.33 c -0.35,4.91 -2.74,8.74 -6.24,11.28 -47.99,85.88 -110.34,145.39 -181.87,165.6 z m -288.2,161.74 c 7.2,-0.51 14.01,-2.64 20.26,-6.31 0.84,-0.5 1.76,-0.59 2.63,-0.93 80.77,-48.25 128.31,-99.93 128.31,-141.92 0,-3.61 -0.35,-7.17 -1.06,-10.64 -2.85,-13.75 -11.7,-26.36 -25.73,-37.64 -20.73,-8.14 -40.98,-10.14 -60.19,-5.55 -1.15,0.26 -3.31,0.43 -4.49,0.46 l -17.73,0.52 -34.32,0.55 c -28.49,-3.1 -95.04,-14.75 -115.45,-54.63 0.2,0.26 0.16,0.49 0.38,0.76 -0.72,-0.91 -1.22,-1.92 -1.76,-2.95 -2.86,-4.09 -4.81,-8.05 -6.08,-11.91 -17.88,16.1 -40.51,27.14 -66.55,27.88 l -7.91,0.24 -14.76,-0.16 c -5.49,11.32 -10.72,27.26 -10.2,34.67 0.94,13.9 5.88,25.31 13.93,32.1 6.74,5.72 15.62,8.08 26.34,7.04 5.61,-0.68 15.91,-6.03 21.46,-8.91 l 4.44,-2.28 c 6.44,-3.29 14.14,-2.11 19.42,2.87 5.26,4.95 6.68,12.78 3.79,19.42 -4,9.1 -7.6,20.51 -7.54,23.95 0.84,12.52 6.42,23.89 15.7,31.97 8.73,7.58 19.75,11.3 31.06,10.49 7.23,-0.53 14.28,-2.91 20.35,-6.92 6.75,-4.42 15.7,-3.54 21.45,2.13 5.76,5.66 6.76,14.61 2.41,21.41 -6.77,10.63 -10.11,17.82 -9.42,27.74 0.95,13.77 7.05,26.22 17.22,35.06 9.55,8.31 21.65,12.37 34.04,11.49 z m -51.75,-787.08 c -0.36,0.77 -18.43,26.7 -18.43,26.7 -9.51,11.31 -16.98,20.2 -16.98,43.38 0,5.42 0.75,12.36 1.65,19.58 5.86,-0.48 11.58,-0.26 16.74,0.13 3.18,-15.24 10.96,-35.05 32.57,-47.54 1.56,-5.79 3.3,-12.25 3.3,-12.25 1.33,-4.73 2.59,-9.29 3.76,-13.84 0.37,-1.43 0.68,-2.88 1.04,-4.33 0.87,-3.64 1.58,-7.31 2.2,-11 0.22,-1.35 0.5,-2.7 0.67,-4.08 0.64,-4.86 1.04,-9.83 1.01,-15 -0.01,-0.49 -0.07,-1 -0.07,-1.47 -0.14,-5.48 -0.62,-11.14 -1.76,-17.22 -2.72,-14.48 -7.91,-27.42 -14.28,-36.12 -2.11,-2.91 -4.37,-5.31 -6.7,-7.16 -2.98,-2.41 -5.8,-3.7 -8.6,-4.06 -6.48,-0.78 -11.06,0.09 -13.56,2.6 -0.98,0.97 -1.32,2.71 -1.97,4.11 4.47,1.31 9.25,3.5 14.17,8.17 10.02,9.47 13.1,21.94 13.1,33.7 0,17.2 -6.63,32.96 -7.86,35.7 z m -41.86,-105.74 c 2.58,-2.59 5.96,-5.28 10.23,-7.56 -6.36,-49.37 -18.49,-109.48 -50.62,-162.75 -4.2,-6.99 -8.15,-13.06 -12.04,-18.69 -1.4,-1.43 -2.5,-3 -3.3,-4.78 -13.54,-18.89 -26.65,-31.99 -46.43,-49.67 -17.11,-15.27 -27.49,-23.08 -48.31,-36.38 l -26.63,-17.84 c -32.33,-22.18 -54.8,-37.29 -93.25,-38.48 l 11.94,2.12 16.18,3.37 c 3.48,0.72 6.48,4.22 5.76,7.7 -0.71,3.48 -3.3,5.82 -6.78,5.11 l -18.7,-3.85 -13.38,-2.55 -11.2,2.47 -21.72,3.93 c -3.46,0.63 -5.64,-1.77 -6.3,-5.25 -0.64,-3.48 2.84,-6.93 6.3,-7.59 l 18.01,-3.39 10.71,-2.24 c -0.43,0.01 -0.79,-0.03 -1.21,0 -20.44,0.65 -35.59,3.7 -49.05,8.47 -0.1,0.03 -0.19,0.09 -0.3,0.12 -13.34,4.77 -25.07,11.21 -38.64,18.68 l -36.64,18.9 -24.72,10.59 c -20.83,8.49 -34.61,14.1 -63.06,38.12 -29.19,24.67 -40.65,46 -58.38,81.5 -31.29,62.68 -40.15,104.16 -35.35,166.06 0.95,0.82 1.86,1.64 2.66,2.44 18.1,18.32 14.75,47.75 14.31,51.05 -0.79,5.93 -5.8,9.99 -11.27,12.39 -4.92,2.19 -11.28,0.68 -16.12,-2.07 -1.65,1.66 -2.38,4.72 -2.38,8.5 0,6.83 2.22,15.77 4.94,22.02 0.03,-0.21 13.31,18.51 13.31,18.51 14.63,17.36 31.19,37.03 22.56,95.28 -0.01,0 -1.91,5.24 -3.67,10.16 7.5,18.91 4.1,41.59 3.62,44.45 -0.91,5.42 -4.4,10.02 -9.32,12.48 -4.91,2.44 -10.77,2.35 -15.64,-0.17 -1.23,-0.63 -2.58,-0.85 -3.99,-1.21 v 0.03 c 1.43,0.55 2.97,1.16 2.97,1.16 6.54,2.3 16.8,6.08 25.2,15.98 l 0.92,-0.57 c 17.51,-9.03 45.05,-9.07 63.82,8.4 29.55,27.47 24.23,59.19 17.27,72.11 -1.15,2.14 -2.8,3.92 -4.7,5.35 1.83,-0.21 3.66,-0.48 5.4,-0.57 14.19,-0.76 39.08,0.84 62.17,15.96 12.79,-10.74 28.47,-17.4 42.43,-17.4 29.48,0 53.91,14.2 68.07,38.89 3.83,2.2 7.46,4.66 10.87,7.5 13.14,-29.92 39.99,-49.24 73.31,-49.24 18.82,0 43.07,10.3 57.06,27.61 15,-16.3 32.71,-24.15 48.43,-27.77 -0.47,-0.62 -1.17,-1.04 -1.56,-1.76 -6.94,-12.93 -12.3,-44.62 17.27,-72.11 18.75,-17.44 46.3,-17.42 63.8,-8.41 l 0.93,0.59 c 8.39,-9.92 18.67,-13.71 25.2,-15.98 0,0 1.55,-0.62 2.98,-1.18 0,-0.01 0,-0.02 0,-0.02 -1.41,0.36 -2.76,0.56 -4,1.2 -4.86,2.55 -10.71,2.61 -15.61,0.17 -4.91,-2.44 -8.42,-7.03 -9.34,-12.45 -1.1,-6.54 -5.08,-37.9 11.31,-57.03 l -1.67,-4.74 c -1.64,-11.13 -2.37,-20.83 -2.37,-29.39 0,-36.27 13.1,-51.84 24.92,-65.89 l 13.7,-19.31 c 2.47,-5.69 4.57,-14.39 4.57,-21.12 0,-3.81 -0.72,-6.92 -2.39,-8.59 -4.83,2.74 -11.2,4.24 -16.11,2.08 -5.47,-2.42 -10.49,-6.5 -11.27,-12.41 -0.44,-3.29 -3.81,-32.72 14.29,-51.04 z M 1607.96,856.633 c -13.21,-12.961 -25.71,-25.188 -40.74,-34.512 -84.02,-51.652 -190.9,-106.301 -353.08,-131.68 -7.55,2.235 -12.82,9.493 -12.82,17.879 0,8.555 5.68,16.172 13.49,18.118 0.11,0.027 0.37,0.105 0.74,0.214 1.26,0.203 2.43,0.614 3.63,1.102 3.73,1.125 8.41,2.539 8.41,2.539 84.69,29.562 200.6,74.328 275.69,120.937 23.87,14.825 45.18,33.321 65.77,51.204 l 3.26,2.734 c 5.9,-20.559 20.94,-36.953 40.44,-44.27 z m 23.98,-24.485 13.79,12.364 c 4.08,-24.305 20.15,-44.18 41.81,-53.465 l -46.6,-30.188 -15.61,-9.668 C 1466.18,652.414 1268.01,600 1127.37,592.199 c -7.92,5.606 -12.72,14.735 -12.72,24.813 0,7.754 3.55,15.136 9.01,20.715 1.69,0.957 3.13,2.285 4.46,3.836 5.13,3.671 11.25,5.964 17.64,5.964 211.02,19.731 340.47,84.594 439.47,145.442 18.32,11.359 32.74,25.5 46.71,39.179 z m -363.09,-36.589 c 0,-0.02 6.46,-3.789 14.43,-8.496 -21.15,-8.04 -43.07,-16.094 -66.28,-24.192 -0.01,0 -0.73,-0.203 -1.72,-0.527 -16,10.215 -31.73,20.754 -47.14,31.613 20.92,9.559 36.27,29.305 40.24,53.106 l 13.79,-12.344 c 13.96,-13.692 28.41,-27.832 46.68,-39.16 z m -27.47,67.879 c 19.51,7.304 34.52,23.722 40.42,44.269 l 3.25,-2.695 c 20.59,-17.891 41.9,-36.407 65.79,-51.235 13.98,-8.668 26.5,-15.925 39.18,-22.742 -20.39,-9.238 -42.43,-18.633 -66.13,-28.144 l -37.04,21.816 c -14.99,9.297 -27.49,21.535 -40.7,34.484 z m 243.83,16.906 c -15.97,-9.914 -34.93,-20.254 -56.18,-30.852 -20.81,10.176 -38.62,20.051 -60.12,33.399 -10.44,6.484 -20.55,13.976 -30.46,21.886 0.54,0.067 1.12,0.067 1.64,0.145 -0.23,0 -0.44,-0.125 -0.65,-0.125 1.32,0 2.63,0.195 3.9,0.508 45.91,2.148 82.68,40.75 82.68,88.367 0,8.378 -2.97,18.628 -6.73,28.328 6.66,-0.81 13.62,-1.44 21.35,-1.71 7.8,-0.24 15.03,0.03 21.93,0.63 -2.82,-8.41 -4.86,-17.17 -4.86,-25.029 0,-42.012 28.64,-77.114 66.9,-86.309 -12.75,-10.605 -25.78,-20.805 -39.4,-29.238 z m -383.55,555.426 c 4.92,-4.65 9.7,-6.84 14.16,-8.14 -0.64,-1.43 -0.99,-3.17 -1.97,-4.13 -2.5,-2.52 -7.07,-3.39 -13.55,-2.58 -3.39,0.41 -6.83,2.3 -10.52,5.82 -8.58,8.16 -15.72,23.7 -19.07,41.49 -1.3,6.92 -1.86,13.34 -1.86,19.48 0,16.68 4.13,31.23 8.71,47.4 l 3.32,12.16 c 13.89,12.09 19.68,27.09 22.48,39.37 0.08,0.36 0.24,0.8 0.33,1.17 0.75,-0.07 1.55,-0.1 2.31,-0.15 1.02,-0.09 2.02,-0.15 3.07,-0.22 1.23,-0.08 2.47,-0.08 3.72,-0.08 0.73,-0.03 1.44,-0.03 2.17,-0.03 1.25,0 2.5,0.08 3.75,0.14 0.95,0.07 1.9,0.14 2.86,0.24 1.01,0.1 2.04,0.19 3.06,0.36 1.73,0.25 3.45,0.61 5.16,1.03 0.29,0.06 0.58,0.08 0.86,0.16 0.45,-4.76 1.2,-10.13 1.2,-14.06 0,-23.11 -7.48,-32 -17,-43.32 l -18.08,-25.91 c -1.45,-3.24 -8.19,-19.23 -8.19,-36.57 0,-11.77 3.1,-24.17 13.08,-33.63 z m 86.32,723.25 c -1.47,21.76 -11.21,41.5 -27.43,55.58 -15.51,13.49 -35.18,20.15 -55.46,18.85 0.34,2.67 1.48,4.76 1.48,7.68 0,1.57 -0.05,3.16 -0.16,4.8 -1.55,22.91 -11.84,43.73 -28.93,58.58 -2.35,2.07 -4.98,3.62 -7.5,5.35 -2.78,1.95 -5.57,3.78 -8.54,5.34 2.26,1.13 4.15,2.71 5.69,4.71 16.03,7.5 32.85,14.86 50.58,21.98 -0.29,-0.07 -0.47,-0.27 -0.75,-0.34 l 12.26,2.65 c 6.88,0.51 13.57,-0.73 19.8,-3.28 4.66,-1.86 9.08,-4.35 12.99,-7.77 9.78,-8.49 15.67,-20.47 16.57,-33.74 0.8,-11.79 -2.55,-23.43 -9.42,-32.79 -4.18,-5.7 -3.6,-13.2 0.23,-19.16 3.81,-5.97 11.75,-8.75 18.69,-7.32 l 17.46,3.56 c 6.25,0.37 12.98,-1.73 18.37,-6.4 6.66,-5.8 10.74,-15.13 11.52,-26.27 0.26,-4.1 -3.52,-10.05 -7.18,-15.82 l -3.05,-4.86 c -3.78,-6.06 -2.27,-13.3 2.06,-18.97 4.35,-5.67 12.87,-7.53 19.71,-5.46 l 13.29,4.02 c 7.36,0.53 14.59,-1.91 20.26,-6.87 6.12,-5.32 9.82,-12.84 10.38,-21.16 0.43,-6.64 -1.2,-13.01 -4.56,-18.48 -5.96,-3.45 -11.79,-6.94 -17.13,-10.48 -3.6,8.77 -9.03,16.85 -16.19,23.59 -15.48,14.55 -37.72,21.59 -61.05,19.27 -1.48,-0.18 -2.89,-0.94 -4.38,-1.23 0.05,0.77 0.46,1.67 0.46,2.39 0,0.69 -0.02,1.39 -0.07,2.05 z m 146.38,136.89 c 61.58,15.13 116.93,25.03 164.85,29.37 78.59,7.09 154.81,6.86 222.45,-0.59 0.76,-0.39 1.36,-1.02 2.2,-1.32 8.68,-3.1 14.73,-11.32 15.36,-20.96 0.9,-13.22 -8.52,-24.68 -21,-25.56 -0.03,0 -4.39,0.11 -4.39,0.11 -0.43,0.04 -35.92,3.76 -35.92,3.76 -54.68,1.44 -104.95,-0.84 -150.74,-6.63 -58.57,-7.44 -116.15,-18.96 -169.04,-33.39 0.04,1.12 0.19,2.24 0.19,3.35 0,21.85 -9.1,40.09 -23.96,51.86 z m 362.48,-51.62 c 6.95,-0.72 12.98,-1.36 12.98,-1.36 -0.43,0.06 10.86,-0.29 10.86,-0.29 3.73,0.27 7.32,0.95 10.81,1.91 -0.22,-1.71 -0.73,-3.35 -0.85,-5.09 -0.11,-1.63 -0.16,-3.22 -0.16,-4.78 0,-2.93 1.13,-5.01 1.48,-7.69 -11.38,0.74 -22.45,-1.31 -32.83,-5.37 0.36,3.1 0.44,6.3 0.21,9.61 -0.31,4.62 -1.23,8.97 -2.5,13.06 z m -47.38,-96.14 c -1.38,0.31 -2.71,1 -4.07,1.17 -20.33,2.01 -38.26,-3.17 -52.17,-14.92 -9.58,-8.12 -16.46,-19.24 -20.87,-32.02 -6.27,4.21 -13.01,8.36 -20.13,12.48 -4.35,5.89 -6.56,13.04 -6.06,20.57 0.57,8.34 4.25,15.87 10.38,21.19 5.7,4.95 12.9,7.38 20.26,6.85 l 13.26,-4.01 c 6.85,-2.07 15.37,-0.18 19.73,5.47 2.64,3.46 4.03,7.5 4.01,11.5 9.13,0.46 18.27,0.93 27.36,1.04 0.86,0.03 12.9,0.78 12.9,0.78 0.47,0.01 0.94,0.12 1.4,0.19 -3.39,-8.14 -5.77,-16.77 -6.39,-25.89 -0.03,-0.69 -0.06,-1.36 -0.06,-2.08 0,-0.69 0.39,-1.58 0.45,-2.32 z m 13.53,-416.13 c 13.39,7.55 18.67,20.83 18.67,33.66 0,4.15 -0.84,8.11 -1.9,11.93 6.12,3.24 11.59,7.08 16.55,11.3 1.4,-3.78 2.6,-8.13 3.44,-13.11 0.09,-0.49 0.12,-1.07 0.2,-1.58 0.32,-2.11 0.62,-4.25 0.8,-6.58 0.24,-2.9 0.37,-5.98 0.37,-9.24 l -1.96,-14.01 c 0,0.1 -0.08,-0.22 -0.11,-0.37 -2.43,-7.74 -7.13,-14.07 -14.83,-19.84 l -12.58,-7.74 c -4.84,-2.49 -17.05,-4.15 -24.77,3.03 -3.92,3.66 -5.97,7.03 -7.79,10.32 7.74,-1.92 16.03,-2.21 23.91,2.23 z m -22.72,33.85 c 1.45,0.32 3.93,0.86 6.82,1.47 0.09,-0.72 0.23,-1.41 0.23,-2.16 0,-0.94 -0.42,-1.47 -0.74,-2.11 -1.62,0.41 -3.88,1.42 -6.31,2.8 z m 37.86,163.35 -1.66,0.6 c -4.98,1.78 -10.51,5.31 -14.98,2.44 -4.47,-2.85 -7.36,-3.48 -7.85,-8.74 l -1.57,-17.56 c 0.73,-4.08 1.12,-7.26 1.12,-9.78 0,-6.58 -2.83,-8.47 -9.19,-10.1 -6.85,6.29 -10.94,41.24 -12.9,58.35 l -2.23,18.34 c -0.45,3.34 -1.2,6.82 -2.12,10.37 -0.05,0.17 -0.09,0.38 -0.15,0.58 -2.83,10.75 -7.66,22.25 -14.1,33.56 5.48,0.04 12.75,0.09 12.75,0.09 l 8.09,-0.24 c 33.86,-0.99 62.01,-31.3 71.98,-61.69 l 2.83,-11.66 c 0.05,-0.17 0.19,-0.32 0.23,-0.52 l 1.07,-7.24 c 0,-0.01 0.4,-14.12 0.53,-18.62 -7.64,9.67 -18.15,17.03 -31.85,21.82 z m -53.34,-71.92 c 7.87,-5.44 17.24,-7.06 27.1,-4.61 13.54,3.34 27.68,11.77 32.87,29.92 3.06,-5.33 5.51,-12.09 5.51,-22.86 0,-6.68 -0.83,-14.62 -2.73,-24.1 l -3.74,-9.36 c 0,0 -0.05,-0.14 -0.1,-0.24 -7.3,-13 -21.59,-19.6 -29.5,-22.39 l -17.16,-3.87 c -23.21,-1.24 -53.99,6.02 -68.7,47.78 0.05,-0.16 0.57,-2.14 0.65,-2.37 -0.11,0.32 -1.47,4.52 -2.66,8.22 l -0.64,2.01 c -0.02,0.21 -0.02,0.44 -0.05,0.64 l -4.74,25.63 c -0.49,4.78 -1.15,9.37 -1.9,13.72 -5.53,31.7 -17.79,52.43 -38.89,66.24 0.22,-0.18 -7.81,4.28 -12,6.6 -0.33,0.21 -0.53,0.51 -0.9,0.69 l -4.81,2.36 c -13.84,6.69 -21.46,10.37 -24.88,25.32 -0.66,2.88 -1.14,5.69 -1.5,8.44 -0.13,1.07 -0.14,2.07 -0.23,3.14 -0.13,1.61 -0.28,3.24 -0.31,4.78 0,0.48 0.08,0.92 0.08,1.41 0.07,3.71 0.52,7.1 1.29,10.14 1.2,2.06 5.59,9.57 6.94,11.87 1,0.73 2.13,1.55 2.13,1.55 34.83,19.84 65.7,-7.18 80.98,-25.06 16.95,-19.77 26.28,-41.72 28.02,-54.68 l 2.13,-17.69 c 4.12,-35.76 8,-69.52 27.74,-83.23 z m -448.05,-112.19 c 2.89,-4.39 6.06,-8.68 11.34,-11.65 7.87,-4.44 16.15,-4.14 23.9,-2.23 -1.83,-3.29 -3.87,-6.69 -7.78,-10.31 -7.74,-7.19 -19.95,-5.54 -24.77,-3.05 0,0 -1.71,1.06 -3.71,2.29 0.79,5.67 1.27,11.79 1.27,18.64 0,2 -0.18,4.24 -0.25,6.31 z m 27.75,19.41 c -0.31,0.63 -0.74,1.14 -0.74,2.09 0,2.32 0.67,4.93 0.69,4.96 1.29,4.06 2.09,7.83 2.9,11.65 5.93,-2.93 11.99,-5.22 17.99,-6.91 -2.57,-0.68 -4.96,-1.88 -7.01,-3.66 -4.42,-3.92 -10.52,-7.33 -13.83,-8.13 z m -0.76,63.71 c -3.54,4.47 -5.78,9.24 -6.86,14.55 -1.91,9.47 -2.73,17.42 -2.73,24.11 0,10.77 2.44,17.52 5.51,22.84 5.19,-18.14 19.31,-26.57 32.85,-29.91 9.87,-2.45 19.21,-0.87 27.11,4.61 19.75,13.71 23.63,47.47 27.75,83.22 l 1.09,9.54 c 0.2,1.53 1.05,8.19 1.05,8.19 1.34,9.97 6.63,23.17 14.55,36.14 4.5,7.41 45.44,71.48 94.43,43.57 8.22,-4.68 11.61,-14.89 10.13,-30.31 l -1.73,-11.03 c 0,0.07 0,0.12 0,0.12 0,0 0,-0.09 -0.01,-0.16 -2.22,-9.58 -6.15,-13.77 -9.72,-16.57 -0.75,-0.71 -14.98,-8.63 -14.98,-8.63 -20.97,-10.28 -49.71,-24.35 -57.76,-83.56 v 0 c 0,-0.02 -0.01,-0.04 -0.01,-0.04 l -0.69,-4.68 c -0.12,-0.8 -0.22,-1.4 -0.22,-1.4 -1.2,-11.44 -3.35,-21.76 -6.53,-31.55 -4.61,-14.1 -11.19,-25.3 -19.57,-33.39 -16.03,-15.4 -36.05,-17.73 -50.03,-16.98 -10.81,0.61 -32.23,6.92 -43.63,21.32 z m 186.7,98.62 c -0.69,-3.49 -1.42,-6.97 -2.22,-10.29 -5.94,2.27 -12.88,3.77 -20.95,4.31 5.36,10.72 12.29,17.17 20.5,21.78 z m -54.65,-109.45 c 5.04,-4.53 10.7,-8.32 16.86,-11.23 -0.84,-0.23 -1.58,-0.63 -2.55,-0.63 -4.54,0 -10.89,3.25 -17.13,7.77 0.94,1.33 1.91,2.68 2.82,4.09 z m 15.66,36.46 c 2.65,9.46 4.71,19.28 5.92,29.81 1.77,1.57 3.61,3.38 5.19,3.38 12.57,0 17.9,-3.77 18.9,-5.21 l -0.61,1.36 c 2.29,-5.24 7.3,-9.78 12.95,-10.8 5.61,-1.04 11.67,0.03 15.67,4.12 1.94,2.02 3.81,5.56 5.5,9.84 2.11,-1.79 4.3,-3.44 6.62,-5.01 -0.21,-3.36 -0.41,-6.51 -0.58,-9.33 l -0.12,-1.83 c -0.18,-2.85 -0.33,-5.36 -0.45,-7.26 -4.7,-11.65 -12.16,-20.36 -22.02,-24.86 -5.76,-2.61 -12.21,-3.96 -19.23,-3.96 -11.48,0 -23.58,9.24 -27.74,19.75 z m 69.77,93.51 0.33,2.52 c 0.53,4.13 1.57,12.19 1.93,15.13 4.39,4.37 7.99,9.34 10.83,14.92 0.1,-2.01 0.24,-4.15 0.4,-6.44 0.05,-0.71 0.12,-1.39 0.17,-2.11 0.18,-2.09 0.39,-4.23 0.65,-6.44 0.07,-0.73 0.14,-1.43 0.24,-2.18 0.71,-5.75 1.74,-11.59 3.14,-17.02 0.21,-0.74 0.42,-1.44 0.64,-2.14 0.56,-1.99 1.21,-3.85 1.91,-5.63 0.26,-0.7 0.51,-1.41 0.8,-2.04 1,-2.28 2.08,-4.37 3.34,-6.08 3.52,-4.87 9.31,-7.5 15.25,-7 5.96,0.47 11.23,4.03 13.92,9.37 3.36,6.68 4.83,8.3 5.34,8.73 0.93,0.07 4.06,-0.09 12.09,-2.82 1.79,-0.8 6.91,-3.55 6.91,-3.55 0.95,-0.74 2.32,-2 3.34,-4.44 0.1,-0.24 0.19,-0.57 0.29,-0.83 0.33,-0.97 0.55,-2.25 0.73,-3.61 0.09,-0.65 0.16,-1.28 0.2,-2.05 0.09,-2.04 0.07,-4.31 -0.3,-7.22 -0.61,-4.56 -2.44,-18.41 -26.7,-17.71 -10.78,0.33 -21.06,2.81 -29.84,7.17 -11.41,5.62 -19.06,14.18 -22.81,25.42 z m 33.74,-80.22 c 2.29,-0.51 4.6,-0.95 6.94,-1.31 1.53,-5.59 3.97,-11.71 7.79,-17.23 0.22,-0.34 0.49,-0.6 0.71,-0.92 1.62,-2.2 3.5,-4.18 5.62,-6.04 0.67,-0.58 1.33,-1.16 2.04,-1.69 2.74,-2 5.7,-3.77 9.29,-4.94 6.69,-2.2 14,-0.07 18.5,5.34 4.12,4.97 8.05,7.44 11.7,8.49 1.09,0.3 2.09,0.29 3.13,0.39 0.72,0.07 1.47,0.29 2.15,0.27 1.7,-0.04 3.33,-0.3 4.87,-0.63 3.11,-0.72 4.62,-1.89 5.93,-4.64 l 1.76,-5.63 c 0,-0.04 1.05,-13.04 1.05,-13.04 0,-9.85 -19.43,-22.88 -34.09,-22.88 -28.14,0 -47.39,22.49 -47.87,55.97 0,0 0.21,4.03 0.48,8.49 z m 195.16,345.17 c -2.66,-0.15 -10.2,-0.63 -10.2,-0.63 -51.42,-0.57 -104.5,-6.72 -156.93,-18.23 -27.45,-6.02 -53.35,-12.85 -77.6,-20.31 -2.95,-0.05 -5.77,-0.68 -8.25,-2.11 -0.96,16.13 -7.72,29.95 -18.75,39.8 48.21,12.55 100.29,22.55 153.11,29.27 36.42,4.62 75.99,6.75 117.69,6.69 1.99,-2.07 4.34,-3.84 7.29,-4.73 5.28,-1.62 8.2,-6.03 8.68,-13.14 0.03,-0.47 0.09,-1.07 0.09,-1.76 0,-4.15 -1.61,-11.73 -15.13,-14.85 z m -129.4,-46.43 c -4.89,-8.5 -8.06,-17.97 -8.74,-28.12 -0.05,-0.73 -0.05,-1.46 -0.08,-2.18 -11.13,5.09 -22.91,10.02 -35.15,14.75 l -2.42,5.84 c 5.35,1.27 10.55,2.61 16.03,3.82 10.1,2.23 20.22,4.08 30.36,5.89 z m -134.54,-35 c 6.83,2.37 14.04,4.67 21.23,6.95 15.31,-4.54 30.18,-9.4 44.31,-14.56 3.87,-5.37 10.23,-7.72 16.71,-6.42 23.9,-9.43 45.5,-19.58 64.08,-30.13 0.45,-0.25 0.84,-0.52 1.29,-0.72 13.24,-7.57 24.94,-15.31 34.67,-23.12 0.35,-1.94 0.8,-3.91 1.29,-5.91 -31.8,24.38 -67.37,28.99 -99.46,11.37 -0.87,-0.15 -1.72,-0.14 -2.59,-0.44 -10.67,-3.67 -21.02,-9.61 -30.61,-17.32 -4.64,10.26 -11.75,18.63 -21.64,24.24 -47.35,27.02 -95.08,3.31 -126.89,-35.98 -7.16,1.96 -15.49,3.4 -24.4,4.26 6.58,11.77 9.04,22.54 9.81,30.87 7.55,5.99 16.27,11.84 25.76,17.55 3.55,0.75 6.93,2.31 9.47,5.22 0.24,0.27 0.37,0.57 0.61,0.84 16.63,9.19 35.94,17.91 57.21,26.13 7.41,-2.24 15.16,0.48 19.15,7.17 z m -117.64,-122.83 c -5.14,-10.02 -8.89,-19.86 -11.12,-29.02 -0.84,-3.15 -1.5,-6.21 -1.88,-9.16 0,-0.02 -0.88,-6.98 -0.88,-6.98 -0.2,-1.63 -1.35,-11.33 -1.35,-11.33 -1.95,-17.14 -6.06,-52.07 -12.89,-58.36 -6.35,1.62 -9.22,3.33 -9.22,9.93 0,2.51 0.39,5.77 1.16,9.95 l -1.58,17.55 c -0.48,5.27 -3.37,5.9 -7.84,8.75 -4.47,2.86 -10,-0.68 -15,-2.44 l -1.66,-0.59 c -4.45,-1.56 -8.49,-3.45 -12.3,-5.52 -1.21,-0.65 -2.27,-1.39 -3.4,-2.1 -2.55,-1.56 -4.95,-3.24 -7.19,-5.08 -1.09,-0.89 -2.15,-1.81 -3.16,-2.75 -2.15,-2.04 -4.11,-4.23 -5.91,-6.52 -0.69,-0.89 -1.46,-1.69 -2.1,-2.61 -2.28,-3.27 -4.3,-6.79 -5.94,-10.57 -0.31,-0.68 -0.49,-1.48 -0.76,-2.18 -1.28,-3.19 -2.34,-6.55 -3.17,-10.1 -0.32,-1.4 -0.57,-2.91 -0.82,-4.39 -0.56,-3.1 -0.95,-6.32 -1.18,-9.67 -0.13,-1.64 -0.26,-3.24 -0.3,-4.92 -0.02,-0.97 -0.16,-1.84 -0.16,-2.8 0,-2.6 0.3,-5.41 0.47,-8.13 0.1,-1.79 0.12,-3.51 0.31,-5.38 0.55,-5.63 1.38,-11.49 2.62,-17.64 0.14,-0.75 0.52,-1.4 0.71,-2.12 -6.08,-2.17 -11.49,-6.13 -16.18,-11.93 -0.09,-0.11 -0.17,-0.23 -0.25,-0.33 -2.05,-2.6 -3.96,-5.54 -5.76,-8.84 -0.41,-0.75 -0.83,-1.48 -1.21,-2.25 -1.84,-3.64 -3.58,-7.57 -5.11,-12 l -6.54,-22.39 c -9.28,-34.7 -15.6,-49.21 -30.72,-49.21 -8.08,0 -15.17,7.9 -19.68,14.55 l -2.27,3.58 c 0,0.02 -8.41,17.67 -8.41,17.67 -0.79,2.09 -1.45,3.86 -2.04,5.51 -0.16,0.48 -0.3,0.9 -0.44,1.33 -0.43,1.24 -0.81,2.36 -1.12,3.44 -0.12,0.41 -0.25,0.83 -0.36,1.23 -0.32,1.18 -0.58,2.31 -0.75,3.4 -0.02,0.16 -0.07,0.29 -0.1,0.47 -0.17,1.24 -0.25,2.46 -0.27,3.78 0,0.33 0.03,0.66 0.04,1 0.01,1.11 0.09,2.31 0.22,3.57 0.05,0.49 0.09,0.96 0.16,1.46 0.1,0.84 0.27,1.85 0.4,2.78 0.74,1.96 1.03,4.01 1.03,6.06 l 1.19,6.44 c 0.57,2.8 2.63,6.06 5.82,9.18 v 0.01 c 0.86,0.84 1.7,1.28 2.58,1.99 9.35,-14.36 22.44,-14.43 30.41,-12.68 32.53,7.05 35.41,55.31 36.26,97.33 0.05,2.82 0.09,5.58 0.15,8.3 l 0.57,20.12 1.79,10.66 c 7.7,35.1 40.49,65.46 76.29,70.61 0.33,0.06 0.72,0.06 1.06,0.1 3.93,-1.12 8.02,-0.79 11.84,1 12.2,0.52 25.48,-0.25 35.94,-1.76 z m -93.08,-206.47 c 0,-2.23 -0.26,-4.93 -0.79,-8.05 -0.11,2 -0.56,3.8 -1.32,5.44 1.19,1.76 2.04,2.64 2.07,2.66 0,0 0.04,-0.03 0.04,-0.05 z m -68.58,109.69 c -0.06,-2.01 -0.1,-3.34 -0.1,-3.34 -0.27,-15.64 -1.27,-52.13 -7.23,-66.65 -0.83,2.1 -1.72,4.32 -1.72,4.32 -2.39,5.97 -6.81,7.86 -13.21,8.45 -1.72,0.17 -3.58,-0.29 -5.38,-0.51 0.44,2.39 0.77,4.87 1.59,6.91 l 4.25,10.33 c 8.35,20.47 14.27,33.03 21.83,41.39 -0.01,-0.36 -0.02,-0.57 -0.03,-0.9 z m -10.66,37.02 c -22.07,-13.64 -31.58,-36.92 -42.85,-64.56 l -4.18,-10.16 c -5.2,-12.53 -5.66,-25.44 -6.06,-36.85 l -0.26,-5.23 c -0.97,-1.18 -1.8,-2.4 -2.64,-3.6 -16.15,16.98 -34.74,39.03 -43.115,53.99 -17.687,31.65 -19.375,43.55 -23.117,69.59 l -1.406,9.76 c -2.519,13.99 -6.394,25.36 -11.863,39.33 -7.297,18.66 -16.946,35.52 -28.215,50.5 9.57,-0.15 19.082,0.36 28.457,2.32 1.367,0.03 19.211,0.5 19.211,0.5 l 29.578,0.72 c 45.44,-4.93 82.29,-20.26 89.5,-37.25 0.63,-1.46 1.45,-2.84 2.45,-4.08 2.56,-3.15 2.84,-4.73 3.39,-12.99 0,0 0.53,-5.51 0.91,-9.25 -0.81,-3.5 -6.63,-28.93 -9.79,-42.74 z m -62.73,-191.32 c -5.37,1.85 -9.77,6.25 -11.48,8.79 -1.23,1.83 -1.07,3.82 -1.98,5.77 3.34,-0.7 6.48,-0.73 9.51,-0.36 0.84,-4.62 2.15,-9.09 3.95,-14.2 z m -11.24,-55.52 c 0,7.01 -0.61,14.8 -1.69,23.27 3.98,-1.52 8.05,-2.47 12.26,-2.88 2.25,-0.44 4.54,-0.72 6.87,-0.58 l 1.72,-0.19 c 0.28,-0.01 0.48,-0.03 0.77,-0.05 -3.44,-10.79 -7.19,-21.95 -11.54,-32.56 -0.55,-1.32 -1.15,-2.55 -1.72,-3.85 -1.7,-3.96 -3.42,-7.86 -5.31,-11.58 -2.53,-4.94 -5.24,-9.6 -8.15,-13.89 -0.16,-0.25 -0.3,-0.54 -0.45,-0.78 -9.53,-13.75 -19.926,-21.38 -31.801,-23.28 -0.215,-0.04 -2.519,-0.49 -2.519,-0.49 -3.535,-0.34 -10.539,-0.38 -14.641,3.66 -1.082,1.06 -0.945,3.93 -1.66,5.6 3.496,-1.13 7.043,-2.18 11.152,-1.91 14.895,1.04 26.479,6.51 34.449,16.27 8.24,10.11 12.26,24.12 12.26,43.24 z m -3.34,-87.62 c 1.01,-4.9 1.68,-8.8 1.68,-11.06 0,-2.33 -0.85,-3.12 -1.76,-3.99 -0.28,0.19 -3.93,2.91 -3.93,2.91 -3.1,2.28 -6.73,2.56 -10.41,1.96 -0.09,0.87 -0.15,1.52 -0.21,2.09 5.1,2.1 9.97,4.81 14.63,8.09 z m -4.36,-152.06 c 10.77,8.26 16.75,16.29 20.05,24.02 0.11,-7.5 0.86,-15.4 2.45,-23.9 0,-0.02 0.01,-0.05 0.01,-0.08 2.24,-11.82 7.6,-31.66 19.35,-48.32 -1.26,-1.77 -2.82,-3.94 -2.82,-3.94 -2.55,-2.88 -6.49,-6.33 -10.71,-6.42 -3.81,-0.08 -6.93,2.54 -8.46,4.12 -0.93,0.96 -3.16,4.47 -3.46,16.12 -0.22,8.75 -8.38,16.65 -17.09,17.38 -0.28,0.02 -22.684,4.08 -27.965,20.1 3.074,-1.87 6.414,-3.3 10.125,-3.87 z m 12.53,68.42 c 4.56,-0.46 9.14,-0.44 13.65,0.04 -1.87,-7.19 -3.54,-14.6 -4.66,-22.42 -1.62,8.26 -4.91,15.77 -8.99,22.38 z m 29.07,41.1 c -0.94,-0.64 -3.25,-2.15 -3.25,-2.15 -9.37,-4.91 -21.11,-6.49 -26.93,-3.67 3.87,0.97 8.1,1.56 10.97,3.4 13.76,8.9 17.76,21.03 17.76,33.61 0,9.61 -2.31,19.48 -4.42,28.42 0,0 -1.39,6.64 -2.55,12.19 l -0.53,2.54 c 10.36,16.84 18.2,36.17 24.54,55.04 9.78,-6.16 19.13,-8.02 26.49,-8.02 3.71,0 7.12,0.43 10.38,0.99 -4.62,-4.8 -8.34,-11.45 -8.34,-21.75 0,-1.69 0.1,-3.48 0.3,-5.4 1.74,-16.17 10.01,-23.72 16.65,-27.19 4.19,-2.19 8.5,-2.76 12.68,-2.98 -0.48,-4.22 -1.29,-8.15 -2.91,-10.68 l -1.09,-1.41 c -5.13,-4.35 -20.05,-2.57 -27.23,-1.73 l -9.44,0.78 c -4.57,0.38 -8.38,-1.12 -11.86,-4.09 -3.47,-2.98 -4.9,-7.27 -5.23,-11.82 -1.29,-18.27 -6.24,-29.39 -15.99,-36.08 z m 667.75,246.22 c 0.35,-0.63 0.74,-1.2 1.13,-1.8 3.14,-4.81 7.01,-8.74 11.68,-11.53 0.57,-0.33 1.17,-0.65 1.77,-0.96 2.45,-1.27 5.05,-2.34 7.96,-2.98 3.08,-0.67 6.01,-0.86 8.78,-0.59 5.57,0.54 10.55,2.92 14.96,7.02 2.21,2.04 4.26,4.51 6.2,7.39 0.29,-0.43 0.51,-0.6 0.79,-1.05 l 5.96,-11.35 c 0,-0.05 2.47,-8.52 2.47,-8.52 0.25,-0.9 0.45,-1.66 0.7,-2.52 1.04,-3.75 1.85,-7.04 2.5,-10.17 0.2,-0.92 0.35,-1.84 0.5,-2.73 0.53,-3 0.86,-5.88 0.89,-8.71 0.01,-0.25 0.05,-0.51 0.05,-0.76 -0.02,-2.44 -0.62,-5.06 -1.03,-7.62 -0.29,-1.69 -0.24,-3.28 -0.73,-5.1 -0.05,-0.11 -0.11,-0.31 -0.11,-0.35 0,-0.03 0.02,0.02 0.09,0.23 l -4.58,-10.53 c -0.02,-0.06 -6.59,-8.44 -6.62,-8.48 h -0.03 c -3.51,-3.41 -7.57,-6.16 -11.77,-8.03 -2.09,-0.94 -4.22,-1.65 -6.33,-2.14 -2.13,-0.49 -4.23,-0.74 -6.28,-0.74 -5.9,0 -12.72,1.94 -19.78,16.8 0.05,0.36 0.1,0.74 0.16,1.09 0.99,6.88 2.17,15.01 2.17,15.01 0,6.74 -0.55,12.81 -1.32,18.56 -0.16,1.15 -0.28,2.26 -0.46,3.35 -0.9,5.59 -2.06,10.74 -3.51,15.41 -0.06,0.19 -0.12,0.36 -0.18,0.55 -3.21,10.14 -7.44,18.22 -11.86,24.58 0.65,1.71 1.29,3.33 1.78,4.67 v 0 c 1.19,-2.87 2.57,-5.51 4.05,-8 z m 20.29,93.24 c 7.55,-8.35 13.46,-20.9 21.82,-41.41 0,0 3.86,-9.4 4.1,-10 -0.39,0 -0.78,-0.03 -1.17,-0.05 -6.41,-0.61 -10.83,-2.48 -13.2,-8.45 l -3.06,-7.67 c -0.23,-0.73 -0.72,-2.11 -1.14,-3.31 -5.99,14.52 -6.98,51.03 -7.24,66.67 0,0 -0.09,2.91 -0.11,4.22 z m 34.74,-304.82 c -0.32,4.56 -1.76,8.85 -5.21,11.81 -3.49,2.98 -7.3,4.49 -11.87,4.13 l -9.3,-0.79 c -7.35,-0.82 -19.65,-2.25 -25.95,0.95 l -1.5,0.82 c -2.11,1.8 -3.21,6.6 -3.86,12.04 4.16,0.26 8.45,0.78 12.63,2.98 6.62,3.48 14.89,11.03 16.64,27.21 0.19,1.89 0.3,3.69 0.3,5.4 0,10.32 -3.71,16.98 -8.35,21.79 3.35,-0.63 6.77,-1.05 10.39,-1.05 9.13,0 18.35,2.29 27.07,6.27 6.2,-18.3 13.91,-36.94 23.96,-53.27 l -1.18,-5.68 c -0.58,-2.79 -1.15,-5.5 -1.52,-7.2 l -0.38,-1.86 c -2.09,-8.94 -4.42,-18.84 -4.42,-28.42 0,-12.59 4,-24.72 17.77,-33.61 2.81,-1.82 6.98,-2.36 10.76,-3.36 -5.19,-2.41 -14.64,-1.57 -23.67,2.31 -1.47,0.63 -3.06,1.32 -3.06,1.32 -12.04,6.34 -17.79,17.77 -19.25,38.21 z m 45.26,-76.74 c -1.46,-2.31 -2.87,-4.65 -4.2,-7.18 -0.57,2.2 -1.18,4.36 -1.77,6.52 0.26,0.01 0.48,0.11 0.73,0.15 1.8,0.02 3.5,0.3 5.24,0.51 z m -0.47,-75.85 c 1.1,5.85 1.68,11.38 2.04,16.75 2.98,-3.24 6.52,-6.48 10.8,-9.76 0.03,0 18.49,-4.79 18.49,-4.79 3.89,0.6 7.35,2.18 10.54,4.19 -4.69,-16.23 -28.06,-20.38 -28.34,-20.42 -8.73,-0.7 -16.91,-8.62 -17.13,-17.36 -0.3,-11.65 -2.51,-15.16 -3.47,-16.14 -1.5,-1.56 -4.63,-4.2 -8.44,-4.11 -1.72,0.03 -3.34,0.74 -4.9,1.64 9.52,12.98 16.72,30.28 20.41,50 z m 22.89,148.89 c -3.67,0.57 -7.29,0.33 -10.35,-1.95 0,0 -3.73,-2.75 -4.02,-2.95 -0.9,0.87 -1.75,1.68 -1.75,4.03 0,2.24 0.67,6.12 1.68,11.01 4.68,-3.29 9.55,-6.03 14.63,-8.12 -0.04,-0.55 -0.11,-1.19 -0.19,-2.02 z m -10.53,54.71 c -0.15,0.22 -0.27,0.52 -0.43,0.75 -2.93,4.3 -5.66,9.01 -8.2,13.96 -1.81,3.54 -3.44,7.32 -5.09,11.09 -0.63,1.49 -1.34,2.93 -1.97,4.44 -4.33,10.6 -8.08,21.75 -11.51,32.49 l 2.52,0.18 c 2.34,-0.15 4.62,0.15 6.86,0.57 4.23,0.4 8.31,1.36 12.26,2.88 -1.08,-8.47 -1.68,-16.28 -1.68,-23.29 0,-19.11 4.01,-33.11 12.26,-43.21 7.97,-9.78 19.56,-15.26 34.45,-16.28 4.11,-0.29 7.66,0.76 11.14,1.89 -0.7,-1.68 -0.57,-4.52 -1.66,-5.6 -4.06,-4 -11.01,-3.97 -14.82,-3.61 -0.01,0 -2.13,0.4 -2.31,0.43 -11.89,1.95 -22.3,9.56 -31.82,23.31 z m -11.73,112.37 c 2.48,-0.05 5.06,0.3 7.68,0.95 -0.92,-2.01 -1.68,-4.05 -2.94,-5.92 0,0 -0.02,0 -0.02,-0.01 -0.03,-0.06 -0.08,-0.12 -0.11,-0.16 -1.04,-1.5 -2.88,-3.68 -5.22,-5.72 0.3,2.31 0.4,4.59 0.48,6.83 0.13,1 0.32,2.04 0.32,2.99 0,0.35 -0.19,0.7 -0.19,1.04 z m -13.48,52.38 c -0.86,1.74 -1.68,3.38 -2.44,4.92 l -0.47,8.72 c -0.4,11.39 -0.88,24.31 -6.06,36.83 l -4.17,10.13 c -13.66,33.53 -25,60.45 -58.99,71.74 -0.26,0.84 -0.56,1.69 -0.85,2.55 -2.73,11.23 -6.13,25.27 -6.81,28.09 0.37,3.76 0.9,9.15 0.9,9.15 0.55,8.26 0.83,9.82 3.41,12.99 0.97,1.25 1.8,2.59 2.41,4.07 7.23,17 44.09,32.32 89.65,37.27 0,-0.02 29.37,-0.73 29.37,-0.73 0,0 17.91,-0.47 19.28,-0.5 15.32,-3.18 30.98,-3.25 46.8,-0.73 -8.65,-12.8 -16.15,-26.84 -22.1,-42.05 -5.47,-14 -9.35,-25.38 -11.77,-38.83 -0.08,-0.5 -1.48,-10.26 -1.48,-10.26 -3.75,-26.04 -5.43,-37.93 -23.13,-69.56 -8.9,-15.95 -34.26,-44.39 -53.55,-63.8 z m -38.43,490.06 c 1.61,-0.75 3.25,-1.52 4.84,-2.29 -1.39,-0.69 -2.88,-1.14 -4.26,-1.91 -0.16,1.4 -0.33,2.81 -0.58,4.2 z m -445.69,93.56 c 23.42,5.14 46.74,9.61 69.81,13.45 0.15,-0.02 0.33,-0.05 0.5,-0.07 3.29,-0.45 6.34,0.32 9.16,1.57 155.16,24.64 297.37,19.63 379.5,-14.55 8.11,-4.59 14.66,-11.79 15.34,-22 0.06,-0.69 0.09,-1.38 0.09,-2.06 0,-15.14 -11.18,-27.95 -25.73,-29 0,0 -4.32,0.04 -4.35,0.04 -0.06,0.03 -15.18,2.16 -15.18,2.16 -39.24,5.78 -81.81,8.99 -126.38,9.68 -42.97,0.66 -87.8,-1.02 -133.36,-5.14 -51.96,-4.69 -112.08,-15.62 -178.97,-32.41 0.33,1.65 0.9,3.22 1.11,4.91 0.36,3.26 0.56,6.51 0.56,9.71 0,13.35 -3.46,26.02 -9.86,37.19 -2.52,4.41 -5.37,8.63 -8.81,12.5 -2.07,2.34 -4.58,4.16 -6.91,6.22 11,2.68 22.13,5.31 33.48,7.8 z m -61.19,-118.39 c 2.6,-6.57 9.79,-10.84 16.87,-10.82 l 17.79,0.07 c 19.93,-2.61 25.39,-22.23 23.48,-38.19 -0.46,-4.04 -5.26,-9.11 -9.9,-14.01 l -3.88,-4.18 c -4.84,-5.21 -4.72,-12.58 -1.57,-18.97 3.15,-6.37 11.16,-9.84 18.23,-9.16 l 13.76,1.32 c 15.88,-2 24.52,-13.56 22.55,-30.12 0.01,0.08 -0.94,-2.17 -2.13,-5.02 -12.51,-4.71 -24.43,-9.6 -35.63,-14.69 -0.03,0.38 -0.03,0.71 -0.04,1.06 -1.19,17.48 -9.02,33.36 -22.07,44.69 -9.95,8.67 -22.19,13.09 -34.97,14.32 0.48,2.51 1.66,4.62 1.66,7.33 0,0.92 -0.04,1.84 -0.09,2.78 -1.38,20.3 -9.63,38 -23.21,49.81 -10.2,8.87 -22.77,13.33 -36.42,14.1 1.42,6.15 2.97,12.35 2.97,18.75 0,1.89 -0.04,3.82 -0.18,5.72 -1.34,19.86 -9.71,37.86 -23.14,51.85 -1.74,1.81 -3.24,3.79 -5.14,5.45 -2.2,1.92 -4.65,3.35 -7.01,4.98 19.66,6.68 40.17,13.06 61.41,19.13 0.1,0 0.19,-0.04 0.31,-0.04 12.18,0 22.87,-3.85 30.92,-10.62 1.54,-1.27 3.12,-2.44 4.43,-3.93 7.72,-8.68 11.17,-20.26 9.69,-32.59 -0.9,-7.51 -3.59,-14.5 -7.53,-20.7 -2.96,-1.97 -5.05,-4.73 -6.3,-7.96 -0.48,-0.49 -0.89,-1.07 -1.39,-1.55 -5.19,-4.8 -6.06,-12.23 -3.47,-18.81 z M 1036,2377.27 c 0.7,10.3 7.36,17.55 15.58,22.12 55.02,22.95 134.34,33.19 227.42,29.87 -62,-15.44 -119.8,-34.13 -171.87,-55.11 -1.14,-0.24 -2,-0.43 -2,-0.43 0.32,0.06 0.67,-0.03 1.01,0.03 -19.94,-8.05 -39.07,-16.41 -57.22,-25.06 -11.06,4.14 -13.04,16.69 -13.04,24.92 0,1.35 0.06,2.6 0.12,3.66 z M 909.781,2216.61 c 21.004,21.6 49.969,43.82 85.996,65.52 1.68,0.39 3.379,0.81 4.943,1.71 6.22,3.66 13.03,5.79 20.25,6.32 2.59,0.16 5.14,0.04 7.68,-0.22 9.64,-0.91 18.81,-4.7 26.37,-11.27 10.16,-8.85 16.27,-21.3 17.2,-35.05 0.67,-9.93 -2.65,-17.14 -9.42,-27.78 -4.35,-6.81 -3.33,-15.72 2.42,-21.41 5.76,-5.66 14.7,-6.54 21.44,-2.1 6.17,4.08 13.01,6.37 20.34,6.91 11.3,0.83 22.34,-2.91 31.06,-10.48 9.3,-8.08 14.89,-19.46 15.74,-32.04 0.03,-3.35 -3.56,-14.79 -7.55,-23.9 -2.91,-6.64 -1.48,-14.47 3.79,-19.42 5.27,-4.97 12.93,-6.17 19.39,-2.85 l 4.53,2.3 c 5.52,2.86 15.78,8.2 21.67,8.9 13.19,1.31 25.64,-2.39 33.91,-10.15 7.28,-6.86 10.89,-16.39 10.46,-27.53 0.38,-6.69 -0.45,-23.58 -19.65,-40.84 -1.86,-0.18 -3.81,-0.35 -5.54,-0.58 -28.97,-4.18 -55.7,-19.86 -75.38,-41.66 l -0.15,1.61 c -0.59,8.81 -1.7,18.8 -9.34,29.57 -0.5,0.92 -0.95,1.85 -1.6,2.66 0.22,-0.27 0.2,-0.51 0.39,-0.75 -20.43,39.86 -86.96,51.51 -115.41,54.61 l -34.418,-0.55 -17.675,-0.52 c -1.172,-0.03 -3.352,-0.21 -4.493,-0.47 -19.211,-4.58 -39.453,-2.58 -60.168,5.55 -14.023,11.28 -22.91,23.89 -25.73,37.65 -0.715,3.49 -1.066,7.03 -1.066,10.64 0,22.77 13.878,48.73 40.011,75.62 z M 575.824,1878.26 c 6.535,-16.52 16.574,-29.95 29.153,-39.98 15.437,-12.33 34.617,-19.5 56.543,-19.5 9.031,0 17.91,1.64 26.503,4.23 11.563,-34.08 39.11,-55.24 77.45,-55.24 18.535,0 35.859,6.32 50.636,16.73 12.793,-35.59 44.149,-61.04 81.2,-61.04 30.48,0 58.664,15.63 75.39,41.79 5.098,7.97 2.785,18.57 -5.203,23.66 -7.969,5.11 -18.555,2.77 -23.652,-5.21 -10.41,-16.25 -27.805,-25.97 -46.535,-25.97 -29.422,0 -53.368,27.56 -53.368,61.47 0,7.62 -5.039,14.34 -12.363,16.45 -7.316,2.13 -15.168,-0.83 -19.238,-7.29 -10.442,-16.5 -27.961,-26.33 -46.867,-26.33 -28.348,0 -45.86,16.33 -49.266,45.98 -0.676,5.73 -4.18,10.74 -9.336,13.35 -5.168,2.57 -11.289,2.4 -16.281,-0.51 -8.836,-5.12 -18.887,-7.8 -29.07,-7.8 -16.993,0 -31.223,6.12 -41.594,17.18 -10.34,11 -16.844,26.93 -18.379,46.57 0.098,0.06 0.812,15.17 0.879,16.66 42.902,78.03 98.164,132.08 161.445,151.03 0.645,0.19 1.281,0.45 1.926,0.64 2.43,0.31 9.629,1.26 9.629,1.26 62.148,12.81 126.133,-28.64 153.387,-98.3 4.835,-12.36 8.007,-21.61 9.953,-32.39 0,-0.09 1.297,-9.07 1.297,-9.07 3.957,-27.59 6.339,-44.25 27.128,-81.43 6.926,-12.4 18.985,-28.08 31.75,-42.83 -2.785,-1.58 -5.187,-3.88 -6.855,-6.76 -1.66,-2.84 -9.941,-17.5 -10.606,-27.52 -0.714,-11.06 2.188,-23 7.813,-33.92 -2.121,-7.12 -3.566,-14.35 -3.566,-21.76 0,-3.51 0.234,-7.04 0.714,-10.6 1.102,-8.23 1.532,-14.88 1.532,-20.29 0,-14.11 -2.93,-19.66 -4.539,-21.63 -0.735,-0.91 -2.832,-2.79 -9.121,-3.51 -1.34,0.87 -3.821,3.4 -5.899,6.99 -2.891,4.99 -8.586,7.41 -14.316,7.74 -5.723,0.34 -11.711,-2.95 -15.157,-7.52 -6.796,0.88 -13.73,-2.29 -17.226,-8.66 -10.723,-19.51 -30.754,-31.64 -52.297,-31.64 -33.191,0 -60.195,28.14 -60.195,62.74 0,8.68 -6.485,15.99 -15.106,17.01 -8.625,1.02 -16.652,-4.56 -18.672,-13 -6.144,-25.42 -29.465,-41.86 -59.425,-41.86 -27.52,0 -51.504,19.38 -58.309,47.11 -1.34,5.43 -5.215,9.86 -10.41,11.89 -5.196,2.04 -11.047,1.4 -15.696,-1.68 -10.039,-6.66 -17.207,-8.91 -28.398,-8.91 -11.328,0 -25.449,2.43 -38.047,16.11 -8.613,9.34 -16.543,23.92 -22.371,46.8 -0.09,0.34 -0.332,0.6 -0.441,0.93 9.445,34.87 20.703,67.59 33.476,97.83 z m -46.785,-154.27 c 7.762,-12.14 16.57,-20.97 25.801,-27.27 16.035,-10.93 33.289,-14.38 48.367,-14.38 10.891,0 20.215,2.26 29.367,5.79 15.711,-32.32 47.059,-54.22 83.446,-54.22 28.339,0 52.5,11.42 69.816,29.16 15.555,-31.68 46.727,-54.05 83.582,-54.05 22.773,0 44.328,8.64 61.184,23.35 2.918,-8.43 7.285,-14.48 11.394,-18.53 7.434,-7.3 17.266,-11.65 28.359,-13.01 l 0.958,-10.36 2.089,-19.39 c 1.914,-23.58 13.164,-40.78 21.399,-53.33 5.859,-8.96 8.899,-13.61 8.899,-17.22 0,-2.22 -1.52,-4.19 -3.833,-6.39 -2.207,2.71 -4.453,5.74 -5.75,7.63 l -11.387,11.77 c -4.191,4.35 -8.378,2.66 -14.238,1.28 -5.89,-1.36 -8.625,-9.25 -10.461,-15 l -3.367,-10.62 -5.012,-18.39 c -0.097,-1.43 -0.144,-2.84 -0.144,-4.25 0,-16.5 6.601,-30.91 19.246,-41.86 8.723,-7.56 19.297,-11.92 29.141,-14.75 1.308,-8.43 4.195,-18.57 11.905,-26.54 9.33,-9.64 21.34,-14.78 33.8,-14.53 9.16,0.2 22.76,3.48 35.6,17.94 0,0 1.27,1.77 2.99,4.15 4.51,-2.04 9.15,-3.49 13.98,-4.08 1.55,-0.19 2.97,-0.2 4.44,-0.29 -3.04,-61.42 7.81,-107.15 39.69,-170.98 3.45,-6.92 6.73,-13.28 9.98,-19.43 -5.23,-2.01 -10.82,-3.21 -16.55,-3.42 -21.07,6.29 -33.14,14.07 -48.51,41.27 -0.32,0.56 -0.67,1.13 -1.04,1.64 l -14.8,20.37 c -23.5,53.4 -74.2,90.25 -134.122,98.65 -13.047,68.62 -20.586,159.11 -18.145,221.46 0.774,2.47 1.7,4.89 2.239,7.47 1.921,9.26 -4.016,18.33 -13.274,20.26 -9.265,1.92 -18.34,-4.03 -20.262,-13.28 -4.746,-22.82 -24.425,-39.36 -46.816,-39.36 -18.437,0 -35.461,11.28 -43.34,28.72 -3.332,7.33 -11.34,11.35 -19.219,9.67 -7.902,-1.71 -13.527,-8.69 -13.527,-16.75 0,-30.04 -23.965,-52.66 -55.75,-52.66 -23.664,0 -41.906,26.07 -48.84,50.3 -2.168,7.56 -9.199,12.67 -17.07,12.39 -7.859,-0.26 -14.531,-5.87 -16.16,-13.56 -5.977,-28.15 -27.746,-47.82 -52.942,-47.82 -17.976,0 -33.679,10.6 -44.851,28.28 -7.832,12.41 -13.496,28.18 -15.852,46.66 -0.039,0.4 -0.261,0.66 -0.34,1.03 3.653,43.99 9.696,86.34 17.93,126.48 z M 999.43,1080.52 c 0,0 0.097,-0.18 0.105,-0.21 -1.433,-26.43 -22.019,-47.62 -47.676,-47.62 -5.156,0 -10.125,1.19 -14.98,2.85 -1.805,1.65 -3.633,3.32 -3.633,3.32 -4.707,4.32 -11.406,5.65 -17.391,3.48 -5.996,-2.18 -10.292,-7.48 -11.152,-13.79 -3.195,-23.32 -20.312,-37.222 -45.793,-37.222 -15.183,0 -26.59,4.668 -34.871,14.232 -0.559,0.65 -1.309,0.98 -1.934,1.51 -44.035,95.66 -50.82,185.4 -11.503,252.97 5.906,11.57 11.914,22.5 18.945,31.77 3.66,2.04 6.289,5.16 7.683,8.99 6.25,6.28 13.391,11.27 21.954,14.32 16.386,6.84 29.531,7.16 49.699,7.16 58.281,0 109.407,-32.22 130.237,-82.1 0.52,-1.22 1.17,-2.39 1.95,-3.47 l 15.01,-20.64 c 5.08,-8.9 10.13,-16.4 15.42,-22.86 2.81,-7.12 7.3,-30.07 7.3,-37.74 0,-27.76 -21.63,-50.34 -48.21,-50.34 l -8.14,1.52 c -2.93,0.55 -9.49,1.29 -12.31,0.3 l -2.1,-0.72 c -4.86,-1.69 -8.474,-5.85 -10.251,-10.68 -0.625,-1.8 -0.937,-3.71 -0.937,-5.63 0,-3.28 0.906,-6.63 2.578,-9.4 z m -242.246,17.7 c -3.176,7.03 -13.293,29.51 -13.293,29.51 0,0 -20.692,47.27 -20.692,47.28 0,0.04 -9.16,27 -9.16,27 -0.129,0.33 -20.371,58.86 -20.371,58.86 -24.336,82.17 -30.996,167.03 -32.59,243.53 12.707,-11.14 28.106,-18.42 46.086,-18.42 23.457,0 44.07,7.96 59.629,21.25 5.574,-59.87 17.93,-127.8 35.437,-194.87 -8.582,-11.37 -15.554,-23.88 -21.699,-35.92 -29.394,-50.51 -36.218,-111.77 -23.347,-178.22 z m 42.429,429.89 c 11.836,-6.98 25.215,-11.13 39.387,-11.13 15.918,0 30.906,4.99 43.73,13.36 1.348,-55.52 7.723,-120.24 17.364,-173.92 -19.336,-0.27 -34.953,-1.68 -53.281,-9.37 -5.84,-2.07 -11.075,-4.86 -16.047,-7.93 -16.082,65.57 -27.032,132.31 -31.153,188.99 z m 149.68,-786.301 -1.32,-2.696 c -10.957,-20.324 -31.504,-33.828 -52.071,-33.828 -16.531,-1.008 -25.476,0.992 -39.695,7.774 -2.422,1.16 -4.953,2.41 -7.754,3.843 -0.031,0.082 -18.789,11.301 -21.32,12.817 -2.754,2.246 -11.18,9.148 -11.18,9.148 l -9.824,9.485 c -0.274,0.273 -2.024,2.128 -2.316,2.371 -22.071,18.515 -61.348,63.351 -80.84,92.218 0.195,-0.293 -69.637,108.016 -69.637,108.016 -14.395,21.281 -23.762,38.418 -36.438,62.173 -62.89,118.88 -100.339,264.62 -108.308,421.43 -1.086,21.43 -1.621,42.68 -1.621,63.66 0,6.99 0.117,13.92 0.242,20.82 4.953,-5.9 10.352,-11.12 16.223,-15.47 14.121,-10.47 30.683,-16.29 48.718,-16.29 20.696,0 39.512,8.09 54.543,21.41 1.434,-80.15 8.153,-169.86 34.11,-257.53 l 20.918,-60.52 c -0.125,0.33 9.199,-27.1 9.199,-27.1 0.156,-0.48 22.031,-50.52 22.031,-50.52 l 13.906,-30.85 c 19.914,-41.23 64.661,-107.744 94.289,-144.717 34.188,-58.371 80.204,-117.336 136.512,-173.879 -1.308,-7.39 -2.644,-10.144 -8.367,-21.765 z m 89.007,-5.129 c -1.81,1.679 -3.91,2.812 -6.1,3.547 -25.82,22.683 -49.755,45.937 -71.942,69.441 39.648,4.109 70.812,38.105 70.812,79.836 0,3.738 -0.9,7.324 -1.4,10.996 0.81,-0.02 1.37,-0.344 2.2,-0.344 42.07,0 75.9,34.289 77.91,76.946 5.79,-0.969 11.51,-1.524 16.9,-1.524 43.36,0 78.64,36.192 78.64,80.642 0,26.55 -12.74,51.38 -34.07,66.47 -7.71,5.44 -18.4,3.62 -23.86,-4.12 -5.47,-7.7 -3.64,-18.41 4.09,-23.86 12.25,-8.67 19.57,-23.07 19.57,-38.49 0,-25.56 -19.9,-46.38 -44.37,-46.38 -14.04,0 -20.78,2.32 -27.7,9.45 -6.12,6.32 -16.03,6.99 -22.93,1.51 -4.26,-3.36 -6.5,-8.36 -6.5,-13.42 0,-3.18 0.88,-6.39 2.7,-9.243 0,0 0.68,-1.074 1.38,-2.16 1.61,-4.883 2.62,-9.961 2.62,-15.176 0,-25.555 -19.92,-46.375 -44.38,-46.375 -10.35,0 -16.11,2.039 -23.75,8.437 -7.09,5.946 -17.315,4.883 -23.475,-2.023 -6.153,-6.922 -5.372,-17.793 1.355,-24.149 l 5.852,-5.519 c 2.89,-5.469 4.949,-13.504 4.949,-21.668 0,-25.566 -19.903,-46.379 -44.375,-46.379 -11.492,0 -22.403,4.59 -30.703,12.91 -1.629,1.653 -3.535,2.871 -5.547,3.711 -25.117,30.774 -46.863,61.77 -65.125,92.481 -0.5,2.062 -1.438,3.996 -2.746,5.82 3.527,-0.391 6.914,-0.984 10.605,-0.984 34.465,0 60.703,17.449 72.844,45.187 6.621,-1.74 13.184,-3.832 20.105,-3.832 41.368,0 74.251,31.942 80.131,72.732 44.79,0.81 81.08,38.18 81.08,84.32 0,2.24 -0.24,5.16 -0.59,8.3 4.59,-1.77 9.4,-3.45 14.69,-4.92 1.52,-0.44 3.06,-0.65 4.64,-0.65 12.56,0 24.9,2.97 36.05,8.25 10.24,-15.03 22.27,-28.75 39.36,-43.19 32.58,-27.53 50.08,-34.67 72.25,-43.7 l 23.35,-9.97 34.39,-17.75 c 13.09,-7.22 25.46,-13.91 39.49,-19.34 7.36,-13.42 15.05,-31.99 15.05,-38.828 0,-30.117 -23.45,-54.617 -52.31,-54.617 -1.42,0 -2.85,-0.188 -4.21,-0.52 -11.76,-2.996 -41.07,4.895 -48.55,9.758 0,0 -0.04,0 -0.04,0.02 l -8.25,6.882 c -4.86,10.586 -12.28,19.895 -21.91,26.77 -7.73,5.457 -18.42,3.672 -23.92,-4.043 -5.47,-7.695 -3.68,-18.399 4.03,-23.887 2.7,-1.906 4.92,-4.336 6.9,-6.926 0.33,-4.589 2.37,-9.004 5.95,-12.195 0.67,-2.707 1.04,-5.512 1.04,-8.351 0,-18.282 -14.16,-33.165 -31.55,-33.165 -9.86,0 -18.98,4.719 -25.02,12.961 -4.56,6.219 -12.71,8.614 -19.92,5.86 -7.2,-2.754 -11.68,-9.992 -10.94,-17.656 l 0.4,-4.075 c 0.3,-3.261 1.57,-6.367 3.6,-8.945 5.7,-7.246 8.25,-14.168 8.25,-22.469 0,-20.695 -16.07,-37.531 -35.8,-37.531 -4.81,0 -9.31,1.574 -13.62,3.633 -1.93,1.484 -3.85,3.008 -5.79,4.512 -0.07,0.089 -0.11,0.187 -0.18,0.273 -0.27,0.254 -0.61,0.332 -0.89,0.566 -3.98,3.118 -8.04,6.184 -11.95,9.336 -7.38,5.93 -18.16,4.766 -24.1,-2.617 -5.93,-7.371 -4.76,-18.152 2.62,-24.082 3.24,-2.625 6.64,-5.176 9.93,-7.762 l 0.98,-1.535 c 0.61,-0.996 1.61,-1.648 2.41,-2.461 7.26,-8.386 11.93,-18.945 11.93,-30.34 0,-25.207 -19.63,-45.722 -43.73,-45.722 -10.61,0 -20.84,4.031 -28.81,11.336 z m 49.68,-42.325 c 32.02,9.211 55.69,38.625 56.85,74.075 11.76,-8.352 23.73,-16.477 35.83,-24.453 -8.39,-9.454 -13.61,-21.965 -13.61,-35.657 0,-8.379 2.05,-16.355 5.53,-23.504 -9.36,-1.105 -18.72,-2.199 -28.42,-3.117 -10.33,0.051 -20.15,-2.969 -29,-7.781 -9.23,6.734 -18.28,13.543 -27.18,20.437 z M 1791.29,560.09 c 23.35,-0.012 49.34,-17.578 49.34,-43.75 0,-25.86 -20.05,-46.856 -44.73,-47.09 -0.49,-0.039 -1.74,-0.137 -1.74,-0.137 -1.96,-0.148 -3.21,-1.64 -4.92,-2.394 -80.63,-21.512 -188.1,-13.778 -307.6,22.187 12.34,5.012 24.7,10.266 37.09,15.793 41.9,18.653 83.98,40.106 125.66,64.297 36.52,-5.207 72.51,-8.332 104.14,-9.219 15.43,-0.41 29.92,-0.375 42.76,0.313 z m -99.49,37.695 c 15.48,9.844 30.7,19.871 45.46,30.195 1.27,-3.429 2.21,-6.582 2.21,-8.429 0,-9.949 -4.69,-18.934 -12.42,-24.571 -11.39,0.665 -23.19,1.602 -35.25,2.805 z m -30.6,21.094 c -81.18,-50.383 -164.42,-90.215 -244.58,-118.313 -134.02,-46.961 -259.37,-61.043 -351.74,-36.394 -1.7,0.75 -2.96,2.246 -4.92,2.402 0,0 -1.23,0.098 -1.72,0.125 -24.7,0.235 -44.74,21.242 -44.74,47.102 0,26.172 26,43.738 50.27,43.738 16.93,-0.926 35.39,-0.906 54.94,-0.086 145.79,6.063 356.63,60.352 524.69,164.629 l 15.58,9.648 50.44,32.657 c 1.78,-34.797 25.19,-63.547 56.79,-72.59 -32.87,-25.477 -67.93,-49.922 -105.01,-72.918 z m 200.56,317.656 c -6.35,5.606 -15.85,5.723 -22.34,0.262 -5.87,-4.922 -5.87,-4.922 -17.16,-4.922 -24.46,0 -44.38,20.82 -44.38,46.387 0,5.617 0.93,11.074 2.79,16.25 0.51,1.398 0.83,2.851 0.94,4.328 l 0.23,2.78 c 0.62,7.23 -3.37,14.03 -9.96,17.02 -6.6,3.02 -14.36,1.55 -19.4,-3.66 -6.41,-6.61 -9.92,-7.68 -25.04,-7.68 -24.47,0 -44.37,20.82 -44.37,46.38 0,15.43 7.32,29.82 19.57,38.48 7.74,5.46 9.57,16.15 4.1,23.88 -5.45,7.73 -16.14,9.56 -23.87,4.1 -21.34,-15.06 -34.07,-39.93 -34.07,-66.46 0,-44.47 35.27,-80.633 78.64,-80.633 5.95,0 11.52,0.391 16.98,1.164 2.18,-42.481 35.87,-76.594 77.84,-76.594 0.61,0 1.04,0.039 1.63,0.039 -0.51,-3.965 -0.84,-7.742 -0.84,-10.691 0,-41.711 31.15,-75.715 70.76,-79.824 -5.41,-5.735 -10.9,-11.438 -16.51,-17.129 -3.18,-1.66 -5.78,-4.141 -7.4,-7.442 -15.29,-15.156 -31.28,-30.136 -48.06,-44.875 -2.16,-0.75 -4.23,-1.914 -6.02,-3.543 -7.95,-7.316 -18.2,-11.347 -28.79,-11.347 -24.12,0 -43.75,20.508 -43.75,45.722 0,9.082 7.67,22.735 12.51,29.188 4.64,6.25 4.53,14.863 -0.33,20.949 -4.85,6.094 -13.18,8.164 -20.29,5.02 l -5.13,-2.258 c -0.88,-0.399 -1.74,-0.86 -2.56,-1.387 -1.98,-1.336 -1.98,-1.336 -6.66,-1.172 l -6.19,0.137 c -19.73,0 -35.8,16.828 -35.8,37.519 0,8.301 2.55,15.235 8.26,22.473 2.04,2.598 3.3,5.703 3.6,9.004 l 0.37,4.051 c 0.74,7.676 -3.74,14.883 -10.96,17.637 -7.19,2.734 -15.34,0.332 -19.9,-5.879 -6.02,-8.231 -15.15,-12.957 -25.02,-12.957 -17.39,0 -31.55,14.882 -31.55,33.164 0,2.851 0.39,5.664 1.05,8.367 3.58,3.183 5.64,7.597 5.97,12.18 1.96,2.617 4.2,5.019 6.89,6.933 7.71,5.488 9.5,16.192 4.01,23.887 -5.49,7.715 -16.17,9.5 -23.89,4.019 -9.64,-6.863 -17.08,-16.168 -21.93,-26.754 l -3.68,-3.078 c -0.05,-0.019 -0.11,-0.019 -0.14,-0.047 -8.28,-5.402 -17.82,-8.234 -27.61,-8.234 -28.85,0 -52.32,24.492 -52.32,54.602 0,8.109 6.08,23.499 12.27,34.499 21.96,8.35 40.56,20.87 60.52,34.56 l 25.68,17.21 c 22.37,14.29 34.18,23.18 52.68,39.72 16.01,14.28 28.51,26.5 40.36,40.89 9.6,-6.85 19.67,-7.47 32,-7.19 l 6.83,0.08 c 1.48,0.02 3.21,0.23 4.66,0.65 5.4,1.5 10.29,3.23 14.97,5.06 -0.53,-3.19 -0.89,-6.12 -0.89,-8.44 0,-46.65 37,-84.6 82.47,-84.6 l 0.08,0.01 c 7.46,-38.85 39.34,-68.828 79.36,-68.828 5.31,0 10.29,1.908 15.41,2.918 10.6,-29.469 38.05,-47.907 76.84,-47.907 3.75,0 7.44,0.34 11.1,0.868 -18.99,-32.703 -41.98,-65.723 -68.68,-98.407 -1.89,-0.839 -3.7,-1.945 -5.23,-3.476 -8.3,-8.34 -19.23,-12.93 -30.73,-12.93 -24.46,0 -44.36,20.82 -44.36,46.387 0,6.523 2.09,16.219 3.26,20.859 1.69,2.625 4.24,6.578 4.24,6.578 1.84,2.844 2.73,6.067 2.73,9.282 0,4.765 -1.98,9.48 -5.79,12.851 z m 211.38,338.195 c -4.78,9.39 -10.18,19.23 -16.54,28.6 0.36,0.81 0.94,1.45 1.19,2.31 19.32,68.48 31.95,138.2 37.34,204.79 15.51,-13.09 35.97,-20.88 59.22,-20.88 19.75,0 36.34,8.83 49.72,21.89 -2.82,-92.23 -14.94,-175.14 -36.21,-246.99 -8.48,-28.61 -21.79,-71.3 -37,-112.22 v -0.02 c -12.83,-34.48 -24.39,-60.67 -34.38,-77.88 -2.59,-4.45 -5.58,-9.33 -8.67,-14.33 23.33,80.15 20.25,154.73 -14.67,214.73 z m -43.66,57.82 c -6.8,5 -14.39,9.22 -23.06,12.29 -15.36,6.47 -28.99,8.39 -45.05,8.94 11.37,58.85 17.88,121.24 18.78,179.17 12.52,-7.79 27.01,-12.38 42.37,-12.38 14.3,0 27.81,4.26 39.75,11.38 -3.87,-64.31 -15.04,-132.21 -32.79,-199.4 z m -35.42,-19.65 c 23.96,-8.54 36.82,-30.67 49.02,-54.57 39.44,-67.82 32.87,-156.85 -10.01,-251.33 -0.66,-0.57 -1.47,-0.91 -2.05,-1.59 -9.14,-10.547 -22.2,-16.633 -35.8,-16.633 -16.06,0 -43.39,4.321 -47.57,32.473 0,0.72 0,1.48 0,1.48 0,5.69 -2.81,10.99 -7.52,14.18 -4.7,3.19 -10.66,3.85 -15.95,1.74 l -4.16,-1.65 c -5.41,-2.14 -11.15,-3.23 -17.05,-3.23 -24.68,0 -44.35,19.75 -47.13,44.78 1.62,2.42 2.38,5.11 2.38,7.86 0,3.57 -1.2,7.22 -3.22,10.47 -3.6,5.77 -11.49,8.6 -18.21,7.62 l -13.26,-1.92 c -26.57,0 -48.2,22.6 -48.2,50.35 0.08,6.43 8.51,35.61 12.37,44.18 0.05,0.13 0.03,0.25 0.09,0.39 3.48,4.84 6.89,10.1 10.32,16.09 l 14.94,20.58 c 19.36,31.1 59.6,80.65 122.97,85.13 0.23,-0.07 0.38,-0.22 0.62,-0.28 3.09,-0.66 6.04,-0.18 8.85,0.72 19.99,0 33.1,-0.35 48.57,-6.84 z m 360.48,188.9 c 0,-20.98 -0.53,-42.23 -1.63,-63.66 -8.41,-165.9 -45.93,-312.36 -111.54,-435.27 -12.47,-23.339 -26.04,-45.925 -40.39,-67.136 -0.21,-0.304 -70.07,-108.625 -70.07,-108.625 -19.3,-28.601 -58.59,-73.406 -80.62,-91.914 -0.27,-0.234 -2.55,-2.793 -2.83,-3.047 l -8.66,-8.281 c 0,0 -9.03,-7.383 -11.82,-9.668 -1.68,-0.996 -22.27,-13.32 -22.27,-13.32 -11.04,-5.684 -18.15,-8.926 -26.39,-9.852 -4.98,-0.547 -10.37,-0.265 -17.31,0.84 -0.9,0.145 -1.81,0.215 -2.71,0.215 -21.26,0 -40.84,11.883 -51.62,30.906 -0.77,3.059 -1.85,7.395 -1.85,7.395 -2.42,9.316 -4.2,16.16 -4.2,25.781 0,3.016 0.26,6.473 0.64,10.203 40.52,41.34 75.8,83.985 104.88,126.817 1.88,0.988 3.63,2.285 5.1,4.023 39.2,46.25 89.64,116.503 114.85,159.903 10.97,18.86 23.38,46.83 36.88,83.16 v 0 c 15.55,41.84 29.09,85.34 37.74,114.45 22.02,74.39 34.58,159.91 37.56,254.69 14.42,-11.6 31.94,-18.56 51.09,-18.56 17.29,0 33.97,5.84 48.5,15.54 5.88,3.92 11.41,8.45 16.47,13.56 0.09,-6.04 0.2,-12.06 0.2,-18.15 z m -3.47,90.9 c 0,-0.11 -0.05,-0.18 -0.05,-0.24 0,-15.67 -6.67,-31.06 -16.73,-43.28 -11.74,-14.22 -28.15,-24.06 -44.92,-24.06 -25.19,0 -46.97,19.66 -52.94,47.81 -1.63,7.71 -8.29,13.31 -16.15,13.57 -7.86,0.27 -14.91,-4.85 -17.07,-12.4 -6.94,-24.23 -25.2,-50.28 -48.86,-50.28 -31.79,0 -55.76,22.61 -55.76,52.64 0,8.07 -5.64,15.06 -13.52,16.75 -7.89,1.69 -15.89,-2.32 -19.23,-9.68 -7.87,-17.42 -24.89,-28.7 -43.32,-28.7 -19.25,0 -36.44,12.28 -43.9,30.22 -0.32,1 -0.56,2.01 -1.05,2.93 -0.69,2 -1.4,4.04 -1.85,6.19 -1.93,9.27 -10.99,15.22 -20.26,13.3 -9.27,-1.92 -15.22,-10.99 -13.3,-20.26 0.8,-3.9 2.06,-7.6 3.38,-11.26 2.62,-69.17 -4.42,-149.51 -19.34,-223.29 -55.59,-6.5 -105.34,-41.05 -141.57,-99.39 0.72,1.05 -14.67,-20.13 -14.67,-20.13 -0.37,-0.52 -0.73,-1.08 -1.06,-1.64 -15.6,-27.64 -27.74,-35.28 -49.48,-41.62 -2.2,-0.02 -4.66,-0.06 -4.66,-0.06 -5.74,-0.12 -8.77,-0.15 -10.99,0.79 2.5,3.87 5.05,7.89 7.66,12.24 35.32,58.55 48.42,123.13 55.23,175.87 3.14,0.54 6.23,1.38 9.24,2.55 11.6,-10.93 23.37,-13.63 31.56,-13.82 12.47,-0.26 24.47,4.88 33.79,14.51 7.72,7.97 10.61,18.12 11.92,26.55 9.78,2.8 20.31,7.15 29,14.65 12.75,10.98 19.39,25.39 19.39,41.96 0,1.4 -0.06,2.82 -0.13,4.26 l -5.01,18.36 -3.4,10.66 c -1.82,5.76 -4.57,13.63 -10.46,15.01 -5.86,1.38 -10.06,3.04 -14.26,-1.31 l -11.34,-11.78 c -1.29,-1.85 -3.55,-4.89 -5.76,-7.59 -2.32,2.17 -3.84,4.15 -3.84,6.36 0,3.61 3.05,8.27 8.91,17.23 8.23,12.57 19.49,29.76 21.4,53.34 l 2.1,19.49 0.94,10.24 c 11.12,1.38 20.95,5.72 28.36,13.03 5.91,5.8 12.38,15.54 14.23,30.9 17.67,-19.28 42.45,-30.72 68.81,-30.72 36.34,0 68.05,20.92 83.82,52.19 17.32,-17.11 41.9,-27.29 69.56,-27.29 35.57,0 66.54,22.48 82.44,55.74 8.8,-4.13 18.43,-7.3 30.37,-7.3 16.08,0 32.83,4.5 47.79,12.97 10.28,5.82 19.73,13.51 27.55,22.9 8.15,-41.02 14.04,-84.24 17.43,-129.11 z m -91.12,326.38 c 0,-18.28 -7.72,-34.57 -19.77,-46.01 -10.65,-10.11 -24.68,-16.44 -40.18,-16.44 -9.47,0 -21.14,6.77 -29.65,11.7 -5,2.9 -11.13,3.08 -16.28,0.48 -5.17,-2.58 -8.68,-7.59 -9.33,-13.35 -3.62,-31.21 -21.83,-49.85 -48.69,-49.85 -18.91,0 -36.42,9.84 -46.87,26.34 -4.06,6.43 -11.91,9.41 -19.23,7.29 -7.33,-2.13 -12.37,-8.84 -12.37,-16.47 0,-33.89 -23.94,-61.46 -53.37,-61.46 -18.72,0 -36.12,9.72 -46.53,25.99 -5.11,7.97 -15.7,10.29 -23.66,5.19 -7.98,-5.11 -10.29,-15.69 -5.22,-23.65 16.75,-26.18 44.95,-41.8 75.41,-41.8 37.06,0 68.41,25.45 81.22,61.03 14.77,-10.38 32.09,-16.73 50.62,-16.73 36.92,0 64.53,22.34 76.49,57.39 8.34,-3.58 17.55,-6.36 27.46,-6.36 20.7,0 39.79,6.97 55.36,18.62 13.41,10.06 24.19,23.61 30.93,39.42 13.39,-31.86 25.01,-66.53 34.7,-103.51 -0.05,-0.34 -0.26,-0.62 -0.29,-0.97 -1.86,-18.31 -11.74,-32.75 -24.62,-42.39 -11.34,-8.51 -24.98,-13.34 -37.78,-13.34 -10.02,0 -17.68,3.86 -29.16,11.46 -4.65,3.08 -10.48,3.69 -15.7,1.67 -5.17,-2.04 -9.06,-6.45 -10.39,-11.88 -7.07,-28.79 -31.28,-49.69 -57.56,-49.69 -27.89,0 -50.1,14.09 -57.93,36.78 -3.08,8.93 -12.84,13.69 -21.77,10.6 -2.3,-0.8 -4.29,-2.04 -5.96,-3.57 -4.22,-2.76 -7.33,-7.08 -7.85,-12.46 -3.16,-32.04 -28.9,-56.25 -59.87,-56.25 -21.54,0 -41.58,12.13 -52.32,31.67 -4.56,8.28 -14.98,11.29 -23.26,6.75 -1.64,-0.89 -2.9,-2.17 -4.11,-3.47 l -0.21,0.26 c -3.44,4.62 -9.48,7.95 -15.24,7.61 -5.74,-0.34 -11.44,-2.77 -14.32,-7.75 -2.08,-3.6 -4.56,-6.1 -5.89,-6.97 -6.3,0.72 -8.4,2.61 -9.12,3.49 -1.62,1.98 -4.55,7.53 -4.55,21.63 0,5.41 0.44,12.07 1.54,20.3 0.49,3.56 0.73,7.1 0.73,10.61 0,7.39 -1.47,14.62 -3.6,21.75 5.64,10.93 8.55,22.87 7.83,33.93 -0.65,9.9 -8.94,24.64 -10.59,27.51 -1.02,1.7 -2.34,3.16 -3.79,4.48 15.76,17.3 31.4,36.28 39.11,50.12 20.79,37.18 23.18,53.84 27.13,81.42 l 1.39,9.57 c 1.83,10.25 5.02,19.52 9.87,31.9 27.25,69.67 91.23,111.1 152.15,98.49 0.82,-0.13 5.47,-0.73 8.65,-1.17 0.87,-0.1 1.68,-0.22 2.2,-0.29 63.9,-18.34 119.66,-72.47 162.95,-150.89 l 1.29,-18.73" /><path
         id="path82"
         style="fill:#ccc;fill-opacity:1;fill-rule:nonzero;stroke:none"
         d="m 1539.12,1594.63 8.86,4.8 14.78,7.53 c 18.79,8.31 31.27,8.28 51.73,7.52 10.08,-0.38 17.14,-2.73 25.3,-5.46 l 15.73,-4.71 c 3.41,-1.02 6.66,0.99 7.69,4.38 1.01,3.41 -1.24,7.08 -4.63,8.1 l -14.71,4.41 c -8.73,2.92 -16.96,5.68 -28.91,6.12 -21.68,0.81 -36.07,0.81 -57.39,-8.6 l -15.83,-8.07 -8.54,-4.62 c -3.13,-1.69 -4.39,-5.64 -2.7,-8.74 1.7,-3.14 5.51,-4.35 8.62,-2.66" /></g></g></svg>